<?xml version="1.0" standalone="no"?>
<!DOCTYPE svg PUBLIC "-//W3C//DTD SVG 20010904//EN"
 "http://www.w3.org/TR/2001/REC-SVG-20010904/DTD/svg10.dtd">
<svg version="1.0" xmlns="http://www.w3.org/2000/svg"
 width="16.000000pt" height="16.000000pt" viewBox="0 0 16.000000 16.000000"
 preserveAspectRatio="xMidYMid meet">
<metadata>
Created by potrace 1.11, written by Peter Selinger 2001-2013
</metadata>
<g transform="translate(0.000000,16.000000) scale(0.002286,-0.002286)"
fill="#000000" stroke="none">
<path d="M3415 6341 c-52 -23 -74 -50 -94 -108 -14 -42 -16 -110 -15 -508 0
-446 1 -461 21 -500 25 -49 48 -70 96 -90 92 -38 193 -4 244 82 l27 47 0 477
0 476 -29 48 c-54 87 -158 118 -250 76z"/>
<path d="M5260 5925 c-60 -19 -80 -45 -217 -270 -63 -104 -161 -266 -218 -360
-131 -217 -135 -225 -135 -280 0 -112 84 -196 195 -196 57 0 99 16 134 53 12
13 80 120 151 238 70 118 172 289 227 379 112 188 125 217 117 274 -15 123
-135 200 -254 162z"/>
<path d="M1623 5919 c-73 -21 -133 -109 -133 -195 0 -40 15 -68 216 -399 94
-154 184 -302 200 -329 88 -149 125 -178 217 -179 119 -1 205 88 194 199 -3
31 -17 74 -34 103 -51 92 -426 705 -450 738 -46 61 -130 85 -210 62z"/>
<path d="M257 4876 c-57 -21 -86 -46 -116 -101 -25 -47 -22 -126 6 -173 36
-58 651 -672 690 -689 75 -31 154 -15 214 44 50 48 65 104 49 175 -12 50 -24
64 -184 227 -413 419 -484 489 -507 504 -35 23 -107 29 -152 13z"/>
<path d="M6629 4876 c-21 -7 -48 -22 -61 -32 -63 -50 -645 -649 -657 -677 -24
-54 -22 -107 4 -162 30 -62 78 -95 150 -102 98 -10 99 -9 454 349 191 192 333
344 344 366 30 64 13 151 -42 210 -50 53 -126 73 -192 48z"/>
<path d="M3339 4856 c-2 -2 -33 -6 -69 -10 -77 -7 -136 -14 -170 -21 -47 -10
-74 -15 -114 -21 -22 -3 -44 -8 -49 -11 -4 -3 -23 -7 -40 -10 -109 -17 -436
-135 -632 -228 -89 -42 -133 -66 -290 -155 -22 -13 -49 -28 -60 -34 -18 -10
-48 -29 -180 -115 -117 -76 -421 -307 -476 -360 -9 -9 -43 -39 -75 -68 -148
-129 -242 -221 -386 -375 -164 -175 -176 -190 -202 -240 -24 -49 -28 -108 -8
-158 28 -73 383 -444 617 -645 39 -33 72 -62 75 -65 3 -3 50 -41 105 -85 469
-378 977 -649 1450 -776 66 -17 134 -33 150 -36 17 -2 46 -8 65 -13 19 -5 59
-12 89 -15 30 -4 63 -9 75 -11 34 -7 215 -17 301 -18 682 -3 1386 275 2102
831 65 50 134 105 153 122 19 17 59 52 89 78 149 131 304 282 426 418 153 169
154 171 171 211 26 61 18 135 -20 189 -70 101 -393 430 -576 589 -58 50 -107
93 -110 96 -15 16 -210 167 -300 232 -115 83 -323 217 -412 267 -207 112 -208
113 -300 155 -279 129 -583 221 -863 261 -22 4 -51 9 -65 12 -28 5 -466 14
-471 9z m406 -396 c140 -17 199 -28 327 -60 89 -22 274 -82 323 -105 17 -7 53
-23 82 -34 125 -49 384 -186 525 -279 40 -26 81 -51 90 -57 57 -34 324 -236
410 -310 123 -106 202 -179 352 -327 l169 -167 -59 -62 c-351 -370 -725 -673
-1093 -886 -117 -68 -329 -174 -396 -198 -27 -10 -54 -22 -60 -26 -19 -13
-250 -88 -350 -112 -126 -32 -194 -45 -268 -52 -32 -4 -68 -8 -80 -11 -46 -9
-346 -5 -427 5 -47 7 -102 14 -122 17 -107 14 -422 104 -523 149 -16 7 -59 25
-95 40 -160 67 -391 194 -571 313 -102 68 -330 234 -359 263 -8 8 -37 32 -65
54 -126 100 -526 485 -525 505 0 8 203 213 305 310 130 123 247 224 355 305
36 27 70 53 75 58 6 4 53 38 105 75 395 280 799 466 1215 558 11 2 36 7 55 10
19 3 42 7 50 9 8 2 44 7 80 11 36 3 66 8 68 9 8 7 344 2 407 -5z"/>
<path d="M3407 4203 c-1 0 -25 -4 -54 -7 -69 -7 -164 -31 -243 -62 -64 -25
-210 -101 -220 -114 -3 -3 -23 -19 -45 -33 -113 -76 -276 -280 -337 -422 -98
-227 -121 -472 -67 -695 84 -345 319 -621 642 -755 156 -64 250 -81 442 -78
114 1 158 6 236 26 288 75 524 251 675 502 55 91 113 239 128 330 3 17 10 52
15 78 13 70 5 281 -13 367 -42 190 -129 361 -262 512 l-33 37 -214 -213 -214
-213 24 -29 c32 -40 78 -123 88 -159 4 -16 10 -37 13 -45 2 -8 6 -57 7 -108 2
-75 -2 -106 -20 -157 -71 -204 -239 -323 -455 -323 -179 0 -323 80 -410 226
-133 225 -67 520 147 655 63 40 170 74 241 76 l22 1 0 304 0 305 -46 -2 c-25
-1 -46 -3 -47 -4z"/>
</g>
</svg>
