<?xml version="1.0" standalone="no"?>
<!DOCTYPE svg PUBLIC "-//W3C//DTD SVG 1.1//EN" "http://www.w3.org/Graphics/SVG/1.1/DTD/svg11.dtd" >
<svg xmlns="http://www.w3.org/2000/svg" xmlns:xlink="http://www.w3.org/1999/xlink" version="1.1">
<metadata></metadata>
<defs>
<font id="eliantoregular" horiz-adv-x="1705" >
<font-face units-per-em="2048" ascent="1536" descent="-512" />
<missing-glyph horiz-adv-x="1024" />
<glyph horiz-adv-x="0" />
<glyph unicode="&#xd;" horiz-adv-x="1024" />
<glyph horiz-adv-x="0" />
<glyph horiz-adv-x="0" />
<glyph unicode=" "  horiz-adv-x="1024" />
<glyph unicode="&#x09;" horiz-adv-x="1024" />
<glyph unicode="&#xa0;" horiz-adv-x="1024" />
<glyph unicode="!" horiz-adv-x="391" d="M102 258v1243h185v-1243h-185zM104 90q0 39 27 65.5t64 26.5t63.5 -26.5t26.5 -65.5q0 -37 -27 -63.5t-63 -26.5q-37 0 -64 26.5t-27 63.5z" />
<glyph unicode="&#x22;" horiz-adv-x="489" d="M100 1438q0 27 18.5 45t45.5 18t45 -18t18 -45q0 -14 -10 -39t-22 -49l-31 -62q-18 33 -33 62q-12 25 -21.5 49t-9.5 39zM262 1438q0 27 18.5 45t45.5 18t44 -18t17 -45q0 -14 -10 -39t-21 -49l-30 -62q-18 33 -33 62q-12 25 -21.5 49t-9.5 39z" />
<glyph unicode="#" horiz-adv-x="1665" d="M63 532l375 3l80 266h-190l-107 182h350l72 240h211l-72 -238h64h211h39l71 238h211l-71 -238l161 2l107 -182l-324 -2l-80 -266h140l106 -183l-299 -2l-63 -209h-211l61 209h-112h-199l-62 -209h-210l61 207h-213zM649 535h37h213h62l79 268h-90l-211 -2h-10z" />
<glyph unicode="$" horiz-adv-x="1269" d="M104 965q0 61 27 130.5t83 130t141 105.5t202 58v112h217v-119q92 -18 163 -57t120 -90t76.5 -109.5t35.5 -113.5l-211 -41q0 14 -9 39.5t-29.5 53.5t-56.5 54.5t-89 42.5v-309q162 -18 254 -76q72 -41 109 -103t37 -136q0 -57 -24 -123t-73 -124.5t-124.5 -104.5 t-178.5 -66v-119h-217v113q-106 12 -186 50t-135.5 91t-87 115.5t-39.5 122.5l210 40q0 -16 11.5 -45.5t38 -61.5t71.5 -58.5t117 -38.5v319q-104 6 -178 27.5t-125 50.5t-80 63.5t-45 68.5t-20.5 61.5t-4.5 46.5zM319 965q0 -29 54.5 -61t183.5 -42v309q-72 -12 -118 -39.5 t-72.5 -60.5t-37 -62.5t-10.5 -43.5zM774 340q55 16 91 45t56.5 57.5t28.5 55t8 39.5q0 31 -45 58.5t-139 39.5v-295z" />
<glyph unicode="%" horiz-adv-x="1472" d="M104 1120q0 80 23 148.5t60.5 121t90 82t111.5 29.5t111.5 -29.5t90.5 -82t60.5 -121t22.5 -148.5t-22.5 -149.5t-60.5 -121.5t-90 -82t-112 -30q-59 0 -111.5 30t-90 82t-60.5 121.5t-23 149.5zM215 1120q0 -121 61 -205q14 -18 43 -42.5t70 -24.5t70 24.5t43 42.5 q61 84 61 205q0 59 -16.5 111.5t-44.5 91.5q-14 20 -43 44t-70 24t-69.5 -24t-43.5 -44q-29 -39 -45 -91t-16 -112zM295 -141l770 1865h92l-768 -1865h-94zM330 1118q0 25 17.5 42.5t41.5 17.5q27 0 44.5 -17.5t17.5 -42.5q0 -27 -17.5 -44t-44.5 -17q-25 0 -42 17.5 t-17 43.5zM801 381q0 80 22.5 149.5t60.5 122t90 82t111 29.5q57 0 109.5 -29.5t91.5 -82t61.5 -122t22.5 -149.5t-22.5 -148.5t-61.5 -121t-91 -82t-110 -29.5q-59 0 -111 29.5t-90 82t-60.5 121t-22.5 148.5zM911 381q0 -57 16.5 -110.5t45.5 -92.5q14 -18 42.5 -42.5 t69.5 -24.5t70 24.5t43 42.5q29 39 45.5 92.5t16.5 110.5q0 121 -62 205q-14 18 -43 42.5t-70 24.5t-69.5 -24.5t-42.5 -42.5q-61 -84 -62 -205zM1024 379q0 27 17.5 44t43.5 17q25 0 42.5 -17t17.5 -44q0 -25 -17.5 -42.5t-42.5 -17.5q-27 0 -44 17.5t-17 42.5z" />
<glyph unicode="&#x26;" horiz-adv-x="1419" d="M104 487q0 131 64.5 243t177.5 177q-102 102 -102 246q0 72 27.5 135.5t74.5 110.5t110.5 74.5t135.5 27.5t135.5 -27.5t110.5 -74.5t74.5 -110.5t27.5 -135.5q0 -143 -102 -246q80 -47 141 -125q76 100 197 152l141 -166q-51 -10 -94 -34.5t-75 -62.5t-50.5 -85.5 t-18.5 -100.5t18.5 -100t50.5 -84t75 -62.5t94 -33.5l-141 -168q-117 49 -199 153q-66 -86 -167 -138t-218 -52q-100 0 -189.5 39t-155 104.5t-104.5 154.5t-39 189zM305 485q0 -59 22.5 -111t61.5 -90t91.5 -60.5t111.5 -22.5t111.5 22.5t91.5 60.5t61.5 90t22.5 111 t-22.5 111.5t-61.5 91.5t-91.5 61.5t-111.5 22.5t-111.5 -22.5t-91.5 -61.5t-61.5 -91t-22.5 -112zM430 1153q0 -68 47 -115t115 -47q66 0 113 47t47 115q0 66 -47 113t-113 47q-68 0 -115 -47t-47 -113z" />
<glyph unicode="'" horiz-adv-x="331" d="M104 1438q0 27 18.5 45t45.5 18t44 -18t17 -45q0 -14 -10 -39t-20 -49l-31 -62q-18 33 -33 62q-12 25 -21.5 49t-9.5 39z" />
<glyph unicode="(" horiz-adv-x="477" d="M104 637v10v21v10v6v2v2v43q2 10 2 20.5v20.5q2 10 2.5 21.5t2.5 21.5v10l2 11q0 4 1 9t1 11q0 4 1 9t1 12q2 4 2 9t2 11q0 4 1 9t1 9q2 6 2 11.5t2 9.5q0 8 4 20q0 6 4 19v10q2 4 2 5t2 5q0 6 4 19q14 74 41 145q6 16 11.5 32.5t11.5 33.5q6 16 12 30.5t12 28.5 q14 29 26.5 54.5t23.5 47.5q12 23 22 42.5t21 35.5q10 16 18 26.5t12 18.5q4 6 11 13l2 4l-2 -4q-2 -2 -3.5 -5.5t-3.5 -7.5q-4 -10 -10 -22t-12 -29q-8 -16 -15.5 -36.5t-17.5 -43.5q-10 -25 -18.5 -51.5t-18.5 -54.5q-4 -8 -5 -14.5t-5 -14.5q-2 -10 -10 -31 q-2 -10 -4 -17t-4 -15q-4 -12 -5 -17q-4 -12 -6 -16q-8 -35 -16 -71t-14 -72q-2 -4 -2 -9.5t-2 -9.5q0 -4 -5 -20q0 -4 -1 -9.5t-1 -9.5q-2 -6 -2 -18q-4 -20 -6 -40l-4 -40q0 -4 -1 -9t-1 -10v-10q-2 -4 -2 -10q0 -10 -1 -19.5t-1 -19.5t-1 -20.5t-1 -20.5v-41v-41v-8v-10 q2 -8 2 -21v-20q2 -6 2 -21v-10l2 -8q0 -14 2 -21v-10q0 -6 2 -10q0 -12 2 -19v-10q2 -4 2 -10q0 -4 1 -9t1 -9t1 -6.5t1 -4.5q0 -6 2 -10q0 -4 1 -9t1 -9q2 -10 3.5 -19.5t3.5 -19.5q8 -37 15 -72t17 -70q4 -16 9.5 -32.5t9.5 -32.5t9 -30.5t9 -31.5q10 -29 19.5 -55 t19.5 -49t17.5 -43t15.5 -37q6 -16 12 -28.5t10 -22.5q2 -6 7 -14l2 -5q0 2 -2 5q-6 6 -11 12q-4 8 -12 19.5t-18 27.5t-20.5 34.5t-22.5 41.5t-24.5 48t-25.5 54q-6 14 -12 28.5t-12 31.5q-4 8 -6 16t-6 16q-8 18 -11 33q-25 66 -43 145q-4 18 -7 38t-7 40q-2 4 -2 10.5 t-2 10.5q0 4 -1 5t-1 5q0 6 -2 10q0 4 -1 9.5t-1 11.5t-2 10v10q-4 20 -5 41t-4 41v21z" />
<glyph unicode=")" horiz-adv-x="477" d="M106 -150l3 5q4 8 6 14q4 10 10 22.5t12 28.5q8 16 15.5 36.5t17.5 43.5t19.5 49.5t19.5 54.5q4 16 9 31t9 31t9.5 32.5t9.5 32.5q10 35 17 70t16 72q2 10 3 19t3 20q0 4 1 9t1 9t1 5t1 5q0 6 2 11q0 4 1 9t1 9q0 6 2 10v10q0 4 1 9.5t1 9.5t1 5t1 5v10q2 6 2 21l2 8v10 q0 14 2 21v20q0 12 2 21v10v8v41v41q0 10 -1 20.5t-1 20.5t-1 19.5t-1 19.5q0 6 -2 10v10q0 4 -1 9.5t-1 9.5q-2 20 -4 39.5t-6 40.5q0 4 -1 9t-1 9q-2 4 -2 9.5t-2 9.5q0 6 -1 11t-1 9q-2 4 -2 9t-3 10q-6 37 -14 72.5t-18 70.5q0 4 -4 16q0 4 -4 17q-2 8 -4.5 15t-6.5 17 q-2 8 -4 15.5t-4 15.5q-4 8 -5 14.5t-5 14.5q-10 29 -18.5 55.5t-18.5 50.5q-10 23 -17.5 43.5t-15.5 36.5t-13 28.5l-9 22.5q-2 4 -3 7.5t-3 5.5l-3 4l3 -4q6 -6 10 -13q4 -8 11 -18t17 -27q23 -35 46 -78q10 -23 22 -48t25 -54q8 -14 14 -28.5t12 -30.5q4 -16 10.5 -32.5 t12.5 -33.5q12 -35 21 -70.5t20 -74.5q4 -12 4 -19q2 -4 2 -10q2 -2 2 -10q4 -12 4 -19q4 -12 4 -20q2 -4 2 -9t2 -12q0 -4 1 -9t1 -9q2 -6 2 -11t2 -9q0 -6 1 -11.5t1 -9.5q0 -6 1 -11t1 -9l2 -11v-10q2 -10 2.5 -21.5t2.5 -21.5v-20.5t2 -20.5v-43v-2v-2v-6v-10v-21v-10 l-2 -12v-21q-2 -20 -3.5 -40.5t-5.5 -41.5v-10q-2 -4 -2 -10q-2 -6 -2 -11.5t-2 -9.5v-10q-2 -4 -2 -10q-2 -4 -2 -10.5t-2 -10.5q-4 -20 -8 -39.5t-8 -38.5q-14 -74 -41 -145q-2 -14 -10 -33q-4 -8 -6.5 -16t-6.5 -16q-6 -16 -12 -31t-12 -29q-12 -29 -25.5 -54.5 t-23.5 -47.5q-12 -23 -22.5 -41.5t-20.5 -34.5t-18.5 -27.5t-12.5 -19.5q-4 -6 -10 -12q-3 -3 -3 -5z" />
<glyph unicode="*" horiz-adv-x="747" d="M102 1024l490 489l57 -57l-489 -489zM104 1456l58 57l489 -489l-57 -57zM338 893v692h80v-692h-80z" />
<glyph unicode="+" horiz-adv-x="897" d="M104 578v79h693v-79h-693zM410 272v693h79v-693h-79z" />
<glyph unicode="," horiz-adv-x="376" d="M102 88q0 37 26 63.5t62 26.5q37 0 63 -26.5t26 -63.5q0 -33 -19 -70q-16 -33 -50 -72.5t-99 -84.5q18 23 30 45q10 20 17.5 44.5t1.5 53.5q-25 10 -41.5 32.5t-16.5 51.5z" />
<glyph unicode="-" horiz-adv-x="616" d="M104 500v80h412v-80h-412z" />
<glyph unicode="." horiz-adv-x="376" d="M102 88q0 37 26 63.5t62 26.5q37 0 63 -26.5t26 -63.5t-26 -62.5t-63 -25.5t-62.5 25.5t-25.5 62.5z" />
<glyph unicode="/" horiz-adv-x="847" d="M-8 -283l770 1866h92l-768 -1866h-94z" />
<glyph unicode="0" horiz-adv-x="1323" d="M104 750q0 156 44.5 293t120 238t177 160.5t218.5 59.5t218 -59.5t177 -160.5t120 -238.5t44 -292.5q0 -156 -44 -292t-120 -237.5t-177.5 -161t-217.5 -59.5q-117 0 -218.5 59.5t-177 161t-120 237.5t-44.5 292zM322 750q0 -115 30.5 -218.5t89.5 -181.5 q14 -18 36 -41.5t49.5 -43t61.5 -34t75 -14.5q39 0 73.5 14.5t62 34t49.5 43t36 41.5q57 78 89 181.5t32 218.5q0 117 -32 220t-89 181q-14 18 -36 42t-49.5 43t-62.5 33.5t-73 14.5q-41 0 -75 -14.5t-61.5 -33.5t-49 -43t-36.5 -42q-59 -78 -89.5 -181.5t-30.5 -219.5z M545 745q0 49 34.5 84t84.5 35q49 0 83.5 -35t34.5 -84t-34.5 -83.5t-83.5 -34.5t-84 34.5t-35 83.5z" />
<glyph unicode="1" horiz-adv-x="561" d="M102 1126l107 375h250v-1501h-250v1126h-107z" />
<glyph unicode="2" horiz-adv-x="1329" d="M104 0v252q80 41 171.5 95t179.5 117.5t170 133.5t143 140.5t98 141t37 136.5q0 8 -5 47t-31.5 80t-82 74.5t-153.5 33.5q-143 0 -217 -84q-41 -45 -49.5 -90t-8.5 -61h-250q0 90 34 177t99.5 155.5t164 110.5t227.5 42t226 -42t163.5 -110.5t99.5 -155.5t33 -177 q0 -113 -51 -220.5t-133 -204.5t-183.5 -184.5t-201.5 -156.5h647v-250h-1127z" />
<glyph unicode="3" horiz-adv-x="1320" d="M100 422l213 211l-2 -51v-15q0 -84 37 -153q43 -86 124 -136.5t179 -50.5q70 0 131.5 27t107.5 73t72.5 107.5t26.5 132.5q0 68 -25.5 128.5t-69.5 106.5t-103.5 73.5t-126.5 29.5l-5 2l-174 115l170 256h-493v223h909l-258 -389q90 -27 165 -80t128 -124.5t83 -158.5 t30 -182q0 -117 -45.5 -220t-122 -180t-181 -122t-221.5 -45q-143 0 -269 67.5t-204 188.5q-25 35 -42 74t-30 80z" />
<glyph unicode="4" horiz-adv-x="1472" d="M94 170l1104 1331v-1098h174v-233h-174v-170h-233v170h-871zM592 403h373v451z" />
<glyph unicode="5" horiz-adv-x="1308" d="M102 350l174 174q8 -66 39 -123t79 -99t108.5 -65.5t128.5 -23.5q74 0 139.5 27.5t114.5 77t77.5 115t28.5 138.5q0 74 -28.5 139.5t-77.5 114.5t-114.5 77t-139.5 28q-63 0 -127 -23l-2 -2h-226v117v479h766v-227h-538v-144q57 15 127 15q119 0 223 -45t182 -123 t123 -181.5t45 -222.5t-45 -223t-123 -182t-182 -123t-223 -45q-90 0 -171 25.5t-149.5 72.5t-122 110.5t-86.5 141.5z" />
<glyph unicode="6" horiz-adv-x="1335" d="M104 567q0 106 36 199.5t100 167.5l458 567h310l-299 -366q111 -8 208 -55.5t168.5 -123t112.5 -176t41 -213.5q0 -117 -45 -220t-122 -180t-180.5 -122t-219.5 -45q-117 0 -220.5 45t-180 122t-122 180.5t-45.5 219.5zM315 567q0 -74 28 -138t77 -113.5t113.5 -77 t138.5 -27.5t138 27.5t113.5 77t77 114t27.5 137.5q0 74 -27.5 138.5t-77 113.5t-114 77t-137.5 28q-90 0 -170 -45q-29 -14 -52.5 -35t-46.5 -43q-41 -47 -64.5 -107.5t-23.5 -126.5zM553 567q0 49 35 84t84 35q51 0 86 -35t35 -84q0 -51 -35 -86t-86 -35q-49 0 -84 35 t-35 86z" />
<glyph unicode="7" horiz-adv-x="1341" d="M102 0l433 750l147 256l152 262h-732v233h867h272l-147 -254l-287 -497l-145 -254l-287 -496h-273z" />
<glyph unicode="8" horiz-adv-x="1183" d="M104 487q0 131 64.5 243t177.5 177q-102 102 -102 246q0 72 27.5 135.5t74.5 110.5t110.5 74.5t135.5 27.5t135.5 -27.5t110.5 -74.5t74.5 -110.5t27.5 -135.5q0 -144 -102 -246q113 -66 177 -177.5t64 -242.5q0 -100 -39 -189t-104.5 -154.5t-154.5 -104.5t-189 -39 t-189.5 39t-155 104.5t-104.5 154.5t-39 189zM305 485q0 -59 22.5 -111t61.5 -90t91 -60.5t112 -22.5q59 0 111.5 22.5t91.5 60.5t61.5 90t22.5 111t-22.5 111.5t-61.5 91.5t-91.5 61.5t-111.5 22.5t-111.5 -22.5t-91.5 -61.5t-61.5 -91t-22.5 -112zM430 1153q0 -68 48 -115 t114 -47t114 47t48 115q0 66 -48.5 113t-113.5 47q-66 0 -114 -47t-48 -113z" />
<glyph unicode="9" horiz-adv-x="1335" d="M104 934q0 117 45.5 220t122 180t180 122t220.5 45t220 -45t180 -122t122 -180t45 -220q0 -106 -36 -199.5t-99 -169.5l-459 -565h-309l297 367q-111 8 -207 55t-168 123t-113 176t-41 213zM315 934q0 -74 28 -138.5t77 -113.5t113.5 -76.5t138.5 -27.5q47 0 89 11t79 32 q29 16 53.5 36.5t46.5 42.5q41 47 63.5 107.5t22.5 126.5q0 74 -27.5 138.5t-76 113.5t-112.5 76.5t-138 27.5t-138.5 -27.5t-113.5 -76.5t-77 -113.5t-28 -138.5zM551 934q0 49 35 85t86 36q49 0 84 -36t35 -85t-35 -84t-84 -35q-51 0 -86 35t-35 84z" />
<glyph unicode=":" horiz-adv-x="385" d="M104 92q0 37 26 63.5t63 26.5t62.5 -26.5t25.5 -63.5t-26 -62.5t-62 -25.5q-37 0 -63 25.5t-26 62.5zM104 721q0 37 26 63.5t63 26.5t62.5 -26.5t25.5 -63.5t-26 -62.5t-62 -25.5q-37 0 -63 25.5t-26 62.5z" />
<glyph unicode=";" horiz-adv-x="376" d="M102 88q0 -29 16.5 -51.5t41.5 -32.5q6 -29 -1 -53.5t-18 -44.5q-12 -23 -30 -45q66 45 99.5 85t49.5 72q19 37 19 70q0 37 -26 63.5t-63 26.5t-62.5 -26.5t-25.5 -63.5zM106 721q0 37 26 63.5t63 26.5t62.5 -26.5t25.5 -63.5t-26 -62.5t-62 -25.5q-37 0 -63 25.5 t-26 62.5z" />
<glyph unicode="&#x3c;" horiz-adv-x="847" d="M100 549l527 530h102l-526 -530l545 -549h-103z" />
<glyph unicode="=" horiz-adv-x="892" d="M102 274v80h693v-80h-693zM102 664v79h693v-79h-693z" />
<glyph unicode="&#x3e;" horiz-adv-x="851" d="M104 0l545 549l-526 530h102l527 -530l-545 -549h-103z" />
<glyph unicode="?" horiz-adv-x="1155" d="M104 1032v21q0 63 6.5 108t19.5 79t32.5 62.5t48.5 61.5q115 139 369 139q150 0 251 -49q95 -47 146 -129t64.5 -142.5t13.5 -129.5q0 -59 -20.5 -111.5t-53.5 -93.5t-71 -69.5t-70 -41.5q-51 -18 -84 -33.5t-52.5 -31t-26.5 -32.5t-7 -38v-338h-181v338q0 129 103 213 q43 35 92 55.5t92 36.5q41 16 68.5 58.5t27.5 91.5q0 47 -4 75.5t-12 48t-20.5 35t-28.5 33.5q-63 72 -227 72q-86 0 -140.5 -17.5t-89.5 -54.5q-16 -18 -28.5 -33.5t-19.5 -36t-11 -49t-4 -77.5v-21h-183zM489 90q0 39 27 65.5t64 26.5t63.5 -26.5t26.5 -65.5 q0 -37 -27 -63.5t-63 -26.5q-37 0 -64 26.5t-27 63.5z" />
<glyph unicode="@" horiz-adv-x="1673" d="M100 590q0 152 58.5 286t159 234t234.5 158.5t286 58.5t285.5 -58.5t234 -158.5t159 -234t58.5 -286q0 -131 -41 -244q-8 -23 -18 -47q-10 -23 -25.5 -51.5t-38.5 -63.5q-27 -41 -61.5 -84t-94.5 -86q-2 -2 -16 -9t-31 -7q-16 -2 -37.5 -2t-37.5 4q-25 6 -42.5 18.5 t-29.5 24.5q-31 33 -38 79t-7 83v94q-51 -43 -115.5 -68.5t-138.5 -25.5q-80 0 -149.5 29.5t-122 82t-82 123t-29.5 150.5t29.5 149.5t82 121.5t122 83t149.5 31q74 0 138.5 -25.5t115.5 -68.5v94h131v-746q0 -18 7 -32.5t30 -18.5q16 0 50 18.5t68 57.5q47 72 74 158 t27 178q0 125 -48 235.5t-130 192.5t-192.5 130t-235.5 48t-235.5 -48t-192.5 -130t-130.5 -192.5t-48.5 -235.5t48.5 -235.5t130.5 -192.5t192.5 -130t235.5 -48q37 0 70.5 3t66.5 13l86 -113q-111 -35 -223 -34q-152 0 -286 58t-234.5 158.5t-159 234.5t-58.5 286z M551 590q0 -53 19.5 -99.5t54 -80t80 -54t98.5 -20.5t99 20.5t81 54t54.5 80t19.5 99.5q0 51 -19.5 97t-54.5 80t-81 54.5t-99 20.5t-98.5 -20.5t-80 -54.5t-54 -80t-19.5 -97z" />
<glyph unicode="A" d="M100 0l752 1501l750 -1501h-1502zM473 229h758l-379 760z" />
<glyph unicode="B" horiz-adv-x="1425" d="M102 0v1501h664q72 0 134.5 -27.5t109.5 -74.5t74.5 -109.5t27.5 -134.5q0 -78 -31 -144.5t-84 -113.5q72 -20 132.5 -62t104.5 -99.5t68.5 -128t24.5 -148.5q0 -96 -36 -179t-98.5 -145.5t-145 -98.5t-177.5 -36h-768zM352 248h459q47 0 89 18.5t74 49t50 72.5t18 89 t-18 89t-50 73t-74 49.5t-89 18.5h-459v-459zM354 1032h355q51 0 85.5 36t34.5 87q0 49 -34.5 85t-85.5 36h-355v-244z" />
<glyph unicode="C" horiz-adv-x="1490" d="M104 750q0 156 59.5 293t161 238t238.5 160.5t293 59.5t292 -58.5t238 -162.5l-182 -182q-68 68 -157 106.5t-191 38.5t-192.5 -39t-157 -105.5t-105.5 -156.5t-39 -192t39 -191.5t105.5 -156t157 -105.5t192.5 -39t191.5 39t156.5 104l182 -182q-104 -102 -239 -160.5 t-291 -58.5t-293 59.5t-238.5 161t-161 237.5t-59.5 292zM733 750q0 51 36 85.5t85 34.5t84 -34.5t35 -85.5q0 -49 -35 -84t-84 -35t-85 34.5t-36 84.5z" />
<glyph unicode="D" horiz-adv-x="1392" d="M104 0v1501h592q113 0 220.5 -50t190.5 -153.5t134 -260t51 -369.5t-52 -344t-136 -203t-190.5 -96.5t-217.5 -24.5h-592zM350 254h346q176 0 248 63q31 27 51.5 69t31.5 90t15.5 98.5t4.5 97.5q0 188 -42 297.5t-87 165.5q-89 112 -220 112h-2h-346v-993z" />
<glyph unicode="E" horiz-adv-x="1329" d="M104 0v254v182v254v557v127v127h1127v-254h-873v-557h582l-49 -254h-533v-182h873v-254h-1127z" />
<glyph unicode="F" horiz-adv-x="1329" d="M104 0v436v254v557v127v127h1127v-254h-875v-557h586l-49 -254h-537v-436h-252z" />
<glyph unicode="G" d="M104 750q0 156 59.5 293t162 238t238.5 160.5t292 59.5q170 0 315.5 -69.5t249.5 -186.5l-184 -184q-68 84 -166 133t-215 49q-102 0 -192.5 -39t-157 -105.5t-105.5 -156.5t-39 -192t39 -192.5t105.5 -157t157 -105.5t192.5 -39q143 0 260 73.5t178 194.5h-348l-39 226 h387h56h256q0 -156 -59.5 -292t-161 -237.5t-237.5 -161t-292 -59.5t-292 59.5t-238.5 161t-162 237.5t-59.5 292z" />
<glyph unicode="H" horiz-adv-x="1327" d="M104 0v438v252v811h252v-811h543l-49 -252h-494v-438h-252zM975 0v1501h252v-1501h-252z" />
<glyph unicode="I" horiz-adv-x="460" d="M104 0v1501h254v-1501h-254z" />
<glyph unicode="J" horiz-adv-x="1155" d="M98 311l207 113q14 -47 44 -83t66 -60.5t74.5 -37t71.5 -12.5q45 0 91 17.5t84 51.5t61.5 83t23.5 111v1007h232v-1007q0 -98 -35 -187.5t-99.5 -158t-155.5 -108.5t-202 -40q-86 0 -158.5 23.5t-132 65.5t-103.5 98.5t-69 123.5z" />
<glyph unicode="K" horiz-adv-x="1372" d="M104 0v1501h252v-700l518 700h314l-510 -694l-279 -377l-43 -57v-373h-252zM557 543l158 213l557 -756h-314z" />
<glyph unicode="L" horiz-adv-x="1353" d="M104 0v1501h254v-1247h842l51 -254h-893h-254z" />
<glyph unicode="M" d="M104 0l189 1501l452 -760l242 -407l-133 -221l-197 327l-219 373l-102 -813h-232zM899 631l524 870l185 -1501h-232l-98 815l-227 -375l-19 -32z" />
<glyph unicode="N" horiz-adv-x="1323" d="M104 0v1501l820 -850v-342l-592 613v-922h-228zM995 236v344v921h228v-1501z" />
<glyph unicode="O" horiz-adv-x="1703" d="M102 750q0 156 59.5 293t162 238t238.5 160.5t292 59.5t292 -59.5t237.5 -160.5t161 -238.5t59.5 -292.5q0 -156 -59.5 -292t-161 -237.5t-237.5 -161t-292 -59.5t-292 59.5t-238.5 161t-162 237.5t-59.5 292zM360 750q0 -102 39 -192.5t105.5 -157t157 -105.5t192.5 -39 t192.5 39t157 105.5t105.5 157t39 192.5t-39 192t-105.5 156.5t-157 105.5t-192.5 39t-192.5 -39t-157 -105.5t-105.5 -156.5t-39 -192zM733 750q0 51 36 85.5t85 34.5t85 -34.5t36 -85.5q0 -49 -36 -84t-85 -35t-85 34.5t-36 84.5z" />
<glyph unicode="P" horiz-adv-x="1361" d="M104 0v1247v127v127h603q115 0 216 -44t177 -119.5t120 -177t44 -218.5q0 -115 -44 -216t-120 -177t-177.5 -120t-215.5 -44h-254l-50 252h304q63 0 118.5 23.5t96.5 65.5t65.5 97.5t24.5 118.5t-24.5 118.5t-65.5 96.5t-96.5 65.5t-118.5 24.5h-351v-1247h-252z" />
<glyph unicode="Q" d="M94 750q0 156 59.5 293t162 238t238.5 160.5t292 59.5t292 -59.5t237.5 -160.5t160.5 -238t59 -293q0 -141 -49 -268.5t-137 -227.5l186 -254h-313l-72 94q-80 -45 -172 -69.5t-192 -24.5q-156 0 -292 59.5t-238.5 161t-162 237.5t-59.5 292zM352 750q0 -102 39 -192.5 t105.5 -157t157 -105.5t192.5 -39t192 39t157 105.5t105.5 156.5t38.5 193q0 102 -38.5 192t-105.5 156.5t-157 105.5t-192 39t-192.5 -39t-157 -105.5t-105.5 -156.5t-39 -192zM725 750q0 51 36 85.5t85 34.5t85 -34.5t36 -85.5q0 -49 -36 -84t-85 -35t-85 34.5t-36 84.5z " />
<glyph unicode="R" horiz-adv-x="1366" d="M104 0v1247v127v127h603q115 0 216 -44t177 -119.5t120 -177t44 -218.5q0 -86 -25 -164t-69 -144.5t-105 -118.5t-135 -85l315 -430h-313l-283 385h-198l-52 252h308q63 0 118.5 23.5t96.5 65.5t65.5 97.5t24.5 118.5t-24.5 118.5t-65.5 96.5t-96.5 65.5t-118.5 24.5 h-351v-1247h-252z" />
<glyph unicode="S" horiz-adv-x="1454" d="M104 1001q0 78 37 166t114 162t194.5 123t279.5 49q147 0 259 -42t188.5 -106.5t118.5 -143.5t55 -154l-248 -49q-2 23 -17.5 63.5t-57.5 80.5t-113.5 69.5t-184.5 29.5q-115 0 -187.5 -31.5t-113.5 -73.5t-56.5 -83t-15.5 -60q0 -18 19.5 -40.5t63.5 -41t116 -30.5 t174 -12q293 -1 455 -97q82 -49 126 -120.5t44 -157.5q0 -78 -37 -166t-114 -163t-194.5 -124t-279.5 -49q-147 0 -259 42t-188.5 106.5t-118.5 144.5t-54 156l247 47q2 -23 17.5 -64t57.5 -82t113.5 -70.5t184.5 -29.5q117 0 189.5 31.5t113.5 73.5t55.5 84t14.5 63 q0 45 -90 85t-283 40q-145 0 -247.5 21.5t-172 56t-110.5 76.5t-61.5 84t-27 78t-6.5 58z" />
<glyph unicode="T" d="M102 1247v254h1504v-254h-1504zM727 0h254v1143l-254 49v-1192z" />
<glyph unicode="U" horiz-adv-x="1368" d="M104 492v1009h252v-1009q0 -242 328 -242q162 0 247 63.5t85 182.5v1005h252v-1005q0 -86 -31 -174.5t-100.5 -160t-180 -116.5t-272.5 -45q-289 0 -444 152q-66 66 -101 152.5t-35 187.5z" />
<glyph unicode="V" horiz-adv-x="1329" d="M104 1501h246l318 -848v2l120 -329l-120 -326zM709 764l276 737h246l-402 -1067z" />
<glyph unicode="W" horiz-adv-x="1875" d="M102 1501h244l320 -848l157 424l-157 424h243l37 -96l123 -328l158 -424l2 2l121 -329l-123 -326l-281 750l-280 -750zM1270 764l276 737h244l-399 -1067z" />
<glyph unicode="X" horiz-adv-x="1361" d="M104 0l433 750l-433 751h293l287 -495l287 495h293l-433 -751l433 -750h-293l-287 496l-287 -496h-293z" />
<glyph unicode="Y" horiz-adv-x="1361" d="M102 1501h293l287 -495l287 495h293l-433 -749l-20 -35v-717h-254v717l-20 35z" />
<glyph unicode="Z" horiz-adv-x="1335" d="M104 0v254l437 543l164 -203l-275 -340h801v-254h-1127zM104 1247v254h1127v-254l-438 -542l-162 202l274 340h-801z" />
<glyph unicode="[" horiz-adv-x="890" d="M104 -246v1747h684l-49 -248h-387v-1251h387l49 -248h-684z" />
<glyph unicode="\" horiz-adv-x="940" d="M68 1583h94l768 -1866h-92z" />
<glyph unicode="]" horiz-adv-x="890" d="M104 -246l50 248h387v1251h-387l-50 248h684v-1747h-684z" />
<glyph unicode="^" horiz-adv-x="847" d="M102 1081q8 16 15.5 30.5t15.5 29.5q10 16 17.5 30.5t17.5 26.5q8 14 17.5 28.5t17.5 30.5q10 14 17 28.5t16 29.5q10 12 18 26.5t18 28.5t19.5 26.5t17.5 28.5q10 14 21.5 26.5t19.5 29.5l41 53l33 45l33 -45l41 -53q8 -16 18 -28.5t21 -27.5q10 -16 18 -28.5t20 -26.5 q10 -14 18.5 -28.5t18.5 -26.5q8 -14 15.5 -28.5t17.5 -29.5q8 -16 17.5 -30.5t17.5 -28.5q10 -12 17.5 -26.5t17.5 -30.5q8 -14 15 -28.5t15 -31.5q-14 12 -25 22.5t-26 24.5q-14 10 -24.5 22.5t-24.5 25.5q-10 10 -20.5 22t-24.5 27q-10 10 -21.5 23.5t-21.5 27.5 q-23 23 -41 47q-12 12 -22.5 26.5t-20.5 28.5q-12 12 -22.5 24.5t-20.5 27.5l-6 6l-6 -6q-10 -14 -20.5 -26.5t-22.5 -25.5q-10 -14 -20.5 -28.5t-22.5 -26.5q-18 -25 -41 -47q-23 -29 -45 -51q-12 -14 -22.5 -26.5t-24.5 -22.5q-10 -12 -22.5 -24.5t-22.5 -23.5 q-14 -14 -25.5 -24t-26.5 -23z" />
<glyph unicode="_" horiz-adv-x="1513" d="M102 0v84h1315v-84h-1315z" />
<glyph unicode="a" horiz-adv-x="1290" d="M104 539q0 113 42 211t116 171.5t172 115.5t211 42q102 0 192.5 -35.5t161.5 -97.5v133h185v-1079h-185v133q-72 -61 -161.5 -97t-192.5 -36q-113 0 -211 42t-172 115.5t-116 172t-42 209.5zM291 539q0 -74 27.5 -138.5t75.5 -112.5t112.5 -76t138.5 -28t138.5 28 t112.5 76t75.5 112.5t27.5 138.5t-27.5 138t-75.5 112.5t-112.5 76t-138.5 27.5t-138.5 -27.5t-112.5 -76t-75.5 -113t-27.5 -137.5z" />
<glyph unicode="b" horiz-adv-x="1275" d="M102 0v1581h185v-635q72 61 162 97t192 36q111 0 209 -42t172 -115.5t116 -172t42 -210.5q0 -111 -42 -209.5t-116 -172t-172 -115.5t-209 -42q-102 0 -192.5 36t-161.5 97v-133h-185zM287 539q0 -74 27.5 -138.5t75.5 -112.5t112.5 -76t138.5 -28t138.5 28t112.5 76 t75.5 112.5t27.5 138.5t-27.5 138t-75.5 112.5t-112.5 76t-138.5 27.5t-138.5 -27.5t-112.5 -76t-75.5 -113t-27.5 -137.5z" />
<glyph unicode="c" horiz-adv-x="1234" d="M102 539q0 113 42 211t116 171.5t172 115.5t209 42q164 0 294 -86t195 -223l-180 -55q-47 80 -128 129t-179 49q-74 0 -138.5 -27.5t-112.5 -76t-75.5 -113t-27.5 -137.5q0 -74 27.5 -138.5t75.5 -112.5t112.5 -76t138.5 -28q98 0 179 49.5t128 131.5l180 -56 q-66 -137 -195.5 -223t-293.5 -86q-111 0 -209 42t-172 115.5t-116 172t-42 209.5z" />
<glyph unicode="d" horiz-adv-x="1282" d="M104 539q0 113 42 211t116 171.5t172 115.5t209 42q102 0 192.5 -35.5t161.5 -97.5v637h185v-1583h-185v133q-72 -61 -162 -97t-192 -36q-111 0 -209 42t-172 115.5t-116 172t-42 209.5zM289 539q0 -74 27.5 -138.5t75.5 -112.5t112.5 -76t138.5 -28t138.5 28t112.5 76 t75.5 112.5t27.5 138.5t-27.5 138t-75.5 112.5t-112.5 76t-138.5 27.5t-138.5 -27.5t-112.5 -76t-75.5 -113t-27.5 -137.5z" />
<glyph unicode="e" horiz-adv-x="1288" d="M102 539q0 113 42 211t116 171.5t172 115.5t211 42q111 0 209 -42t172 -115.5t116 -172t42 -210.5q0 -53 -11 -111h-192h-86h-586q35 -106 127 -175t209 -69q88 0 163 39t122 105l184 -56q-70 -123 -193.5 -197.5t-275.5 -74.5q-113 0 -211 42t-172 115.5t-116 172 t-42 209.5zM297 612h694q-12 59 -45 110.5t-79 89.5t-103.5 59.5t-120.5 21.5t-120.5 -21.5t-103.5 -59.5t-78 -89t-44 -111z" />
<glyph unicode="f" horiz-adv-x="593" d="M104 895v184h78v209q0 82 31 138.5t77 91t99 50t100 15.5v-184q-14 0 -34.5 -3t-40 -15.5t-33.5 -34t-14 -58.5v-209h122v-184h-122v-895h-185v895h-78z" />
<glyph unicode="g" horiz-adv-x="1288" d="M104 539q0 111 42 209t116 171.5t172 115.5t209 42q84 0 160 -23.5t141 -66.5q47 49 110.5 70.5t116.5 21.5v-184q-16 0 -44.5 -6t-51.5 -29l2 -2q49 -68 77 -148.5t28 -170.5q0 -98 -32 -185.5t-91 -156.5q-74 -92 -182 -146q-113 -51 -234 -51q-98 0 -183 31.5 t-157 87.5q-4 -10 -5 -19.5t-3 -17.5t-2 -16q0 -14 4 -36t17.5 -42.5t38 -34.5t65.5 -14h446h13q59 -2 103 -18.5t79 -41.5q59 -45 85.5 -105.5t31.5 -111.5v-4q0 -10 -5.5 -51t-33.5 -90q-10 -18 -30 -42t-48 -44q-31 -23 -76 -39.5t-106 -18.5h-9h-456q-84 0 -136.5 28 t-80.5 56q-33 35 -50.5 74t-25.5 73t-9 58.5t-1 30.5l184 -6q-2 -14 5 -47t30 -56q26 -26 80 -26h4h456h9q35 0 57 10t34.5 25.5t17.5 32t5 30.5q-2 31 -15 49.5t-29.5 28.5t-36 15t-33.5 5h-13h-446q-86 0 -144.5 31t-95.5 77t-53 100t-16 101q0 4 1 23.5t7 49.5t20.5 63.5 t40.5 66.5q-35 59 -54.5 128t-19.5 145zM289 539q0 -49 12 -93.5t35 -83.5q33 -57 80 -96t104.5 -60.5t122.5 -21.5q68 0 127 22.5t107 63.5q55 49 87.5 119t32.5 150q0 78 -32.5 147.5t-87.5 116.5q-47 41 -106.5 65.5t-127.5 24.5q-74 0 -138.5 -27.5t-112.5 -76 t-75.5 -113t-27.5 -137.5z" />
<glyph unicode="h" horiz-adv-x="1144" d="M100 0v1583h185v-622q59 53 130.5 83.5t155.5 30.5t169 -39t153 -108.5t111 -164.5t43 -206v-557h-183v557q0 70 -27.5 131.5t-69.5 106.5t-94 71.5t-102 26.5q-59 0 -111 -29.5t-90 -77t-60.5 -104.5t-24.5 -115v-567h-185z" />
<glyph unicode="i" horiz-adv-x="389" d="M104 0v1079h185v-1079h-185zM106 1247q0 37 27 63.5t64 26.5t63.5 -26.5t26.5 -63.5q0 -39 -27 -65.5t-63 -26.5q-37 0 -64 26.5t-27 65.5z" />
<glyph unicode="j" horiz-adv-x="385" d="M-16 -283q12 0 32.5 3.5t40 15.5t33.5 33.5t14 58.5v1251h183v-1251q0 -80 -31 -136.5t-76 -91t-98 -50t-98 -15.5v182zM104 1245q0 37 27 63.5t64 26.5q39 0 64.5 -26.5t25.5 -63.5t-26 -63.5t-64 -26.5q-37 0 -64 26.5t-27 63.5z" />
<glyph unicode="k" horiz-adv-x="940" d="M104 0v1079h185v-350l260 350h227l-319 -434l385 -645h-215l-289 485l-49 -67v-418h-185z" />
<glyph unicode="l" horiz-adv-x="389" d="M104 0v1583h185v-1583h-185z" />
<glyph unicode="m" d="M72 0v598q0 86 32.5 171t91 154.5t140.5 112.5t180 43q111 0 200 -55t146 -141q59 86 148 141t202 55q98 0 179.5 -43t139.5 -113.5t90 -158.5t32 -176v-588h-187v588q0 55 -18 109.5t-52 98.5t-81 71.5t-103 27.5q-55 0 -102 -26.5t-82 -69.5t-54.5 -96.5t-19.5 -104.5 v-10v-588h-184v588q0 55 -18.5 109.5t-52 98.5t-81 71.5t-102.5 27.5t-102 -26.5t-82 -69.5t-54.5 -96.5t-19.5 -104.5v-598h-186z" />
<glyph unicode="n" horiz-adv-x="1085" d="M104 0v598q0 86 32 171t90.5 154.5t140.5 112.5t180 43t179 -43t138.5 -113.5t89 -158.5t31.5 -176v-588h-184v588q0 55 -18.5 109.5t-52.5 98.5t-81 71.5t-102 27.5t-102.5 -26.5t-82 -69.5t-54 -96.5t-19.5 -104.5v-598h-185z" />
<glyph unicode="o" horiz-adv-x="1280" d="M104 539q0 113 42 211t116 171.5t172 115.5t211 42q111 0 209 -42t172 -115.5t116 -172t42 -210.5q0 -111 -42 -209.5t-116 -172t-172 -115.5t-209 -42q-113 0 -211 42t-172 115.5t-116 172t-42 209.5zM291 539q0 -74 27.5 -138.5t75.5 -112.5t112.5 -76t138.5 -28 t138.5 28t112.5 76t75.5 112.5t27.5 138.5t-27.5 138t-75.5 112.5t-112.5 76t-138.5 27.5t-138.5 -27.5t-112.5 -76t-75.5 -113t-27.5 -137.5z" />
<glyph unicode="p" horiz-adv-x="1275" d="M104 -465v1544h185v-133q72 61 161 97t191 36q111 0 209 -42t171 -114.5t115 -171t42 -208.5q0 -111 -42 -209t-115 -171t-171 -115t-209 -42q-102 0 -191.5 36t-160.5 97v-604h-185zM289 543q0 -74 27.5 -138.5t75.5 -112.5t111.5 -76t137.5 -28t137.5 28t111.5 76 t75.5 112.5t27.5 138.5q0 72 -27.5 136t-75.5 112.5t-111.5 76t-137.5 27.5t-137.5 -27.5t-111.5 -76t-75.5 -113t-27.5 -135.5z" />
<glyph unicode="q" horiz-adv-x="1280" d="M104 543q0 111 42 209t115 170.5t171 114.5t209 42q102 0 191.5 -35.5t160.5 -97.5v133h185v-1544h-185v604q-72 -61 -161 -97t-191 -36q-111 0 -209 42t-171 115t-115 171t-42 209zM289 543q0 -74 27.5 -138.5t75.5 -112.5t111.5 -76t137.5 -28t137.5 28t111.5 76 t75.5 112.5t27.5 138.5q0 72 -27.5 136t-75.5 112.5t-111.5 76t-137.5 27.5t-137.5 -27.5t-111.5 -76t-75.5 -112.5t-27.5 -136z" />
<glyph unicode="r" horiz-adv-x="778" d="M102 0v600v188v291h185v-22q53 20 106 20q8 0 29.5 -1t50.5 -9t61.5 -23.5t61.5 -42.5q29 -29 54.5 -78t25.5 -130h-184q0 51 -23 73q-16 16 -38.5 21.5t-33.5 5.5q-14 0 -32.5 -4t-35 -13.5t-28.5 -27t-14 -43.5v-205v-600h-185z" />
<glyph unicode="s" horiz-adv-x="919" d="M102 786q0 135 91.5 214t271.5 79q317 0 352 -213l-180 -55q0 18 -5 34.5t-22.5 27t-51.5 16.5t-93 6q-61 0 -96 -10.5t-53.5 -26.5t-22.5 -34.5t-4 -37.5q0 -35 10 -55t32.5 -35.5t58.5 -29t85 -33.5l43 -17q45 -18 98.5 -39.5t99.5 -57.5t76.5 -90t30.5 -138 q0 -135 -90 -213t-270 -78q-322 0 -354 215l180 53q0 -18 5 -33.5t22.5 -26.5t52 -17.5t94.5 -6.5q61 0 96 10.5t52.5 26t21.5 33.5t4 37q0 35 -10.5 55.5t-33 35.5t-58 28.5t-86.5 33.5l-43 19q-45 18 -98.5 38.5t-98.5 56.5t-76 90t-31 138z" />
<glyph unicode="t" horiz-adv-x="692" d="M104 1079v185h150v319h184v-319h150v-185h-150v-1079h-184v1079h-150z" />
<glyph unicode="u" horiz-adv-x="1081" d="M100 481v598h185v-598q0 -51 19.5 -104t54 -96t81.5 -70t103 -27q55 0 102 28t81 72t52.5 98t18.5 110v587h184v-587q0 -90 -31.5 -177.5t-89 -158t-138.5 -113.5t-179 -43t-180 43t-140.5 112.5t-90.5 154.5t-32 171z" />
<glyph unicode="v" horiz-adv-x="1157" d="M102 1079h220l256 -585l260 585h219l-479 -1079z" />
<glyph unicode="w" horiz-adv-x="1349" d="M100 1079h170l201 -585l117 340l86 245l84 -245l116 -340l203 585h170l-373 -1079l-200 586l-205 -586z" />
<glyph unicode="x" horiz-adv-x="1050" d="M96 1079h215l211 -366l211 366h215l-319 -551l305 -528h-215l-197 342l-196 -342h-215l305 528z" />
<glyph unicode="y" horiz-adv-x="1064" d="M37 -465l47 100l174 375l172 367l-328 702h203l225 -485l228 485h203l-328 -702l-103 -217l-69 -150l-174 -375l-47 -100h-203z" />
<glyph unicode="z" horiz-adv-x="1064" d="M102 2l523 893h-523v184h856l-522 -893l522 -2v-184z" />
<glyph unicode="{" horiz-adv-x="602" d="M102 90v8v4v9v14q2 4 2 14l5 21q2 10 4 18t6 19q12 31 35 61q10 14 20 25.5t21 21.5q20 20 37.5 36.5t27.5 33.5q20 33 27 74v2v-2v2v6v12v10v8q0 16 -6 33q-10 33 -31 55q-10 10 -22.5 18.5t-22.5 14.5t-18.5 9.5t-14.5 7.5q-4 0 -6 1t-4 1t-2 2t2 2q6 0 10 2l33 16 q25 14 45 35q20 20 31 53q6 14 6 33v8v13v12v4v2v2v-4v2v2q-6 43 -27 72q-10 16 -27.5 32.5t-37.5 36.5q-10 10 -20.5 22.5t-20.5 24.5q-25 31 -35 64q-8 18 -10 37l-5 18q0 10 -2 17v12v8v4v8q2 10 2 17.5t2 15.5q6 35 17.5 63.5t28.5 55.5q33 49 73 88q10 10 19.5 17.5 t19.5 13.5q18 14 41 24q23 14 41 19q12 4 19 8q6 0 18 4q4 2 9 2t9 2q4 0 8.5 1t8.5 1q8 2 15 2h13h23q4 -2 8 -2t8 -2q4 0 6.5 -1t4.5 -1h4h-4l-9 -4q-4 0 -16 -4q-4 -2 -9 -4t-11 -4t-11.5 -4t-13.5 -7q-4 -4 -12 -8q-4 -2 -6 -4t-7 -4q-4 -2 -7 -4t-7 -4q-6 -4 -14 -12 q-16 -10 -29 -23q-27 -25 -57 -61q-12 -16 -23.5 -36t-21.5 -42q-10 -20 -16.5 -42t-8.5 -44q-2 -4 -1 -10.5t-1 -10.5v-6v-2l2 -14v-13q2 -4 2 -8q2 -2 2 -8l4 -8q6 -18 19 -37q8 -10 15 -18.5t17 -18.5q8 -10 17.5 -21.5t19.5 -21.5q4 -6 9.5 -13t9.5 -13q8 -12 16 -27 q16 -31 21.5 -62.5t3.5 -60.5v-2v-4v-2h-2v-6l-2 -13q0 -6 -2 -12q-2 -4 -2 -7t-3 -7q-2 -6 -4 -13.5t-6 -13.5t-5 -12t-5 -10q-27 -41 -68 -62q-31 -14 -57 -18q12 -2 26.5 -5t30.5 -14q41 -16 68 -61q4 -4 5 -10.5t5 -12.5q6 -8 10 -26q2 -4 2.5 -7.5t2.5 -7.5t2 -12 l2 -12v-4l2 -2v-2v-2v-5q2 -29 -3 -60.5t-22 -59.5q-6 -14 -16 -29q-4 -6 -9.5 -13.5t-9.5 -11.5q-10 -12 -19 -23l-18 -22q-10 -10 -17 -18t-15 -19q-14 -20 -19 -34l-4 -11q0 -4 -2 -8q0 -4 -2 -6v-14l-2 -15v-2v-6q2 -4 1 -10t1 -10q2 -23 8 -44.5t17 -41.5 q10 -23 21 -41.5t24 -36.5q31 -37 57 -62q12 -14 29 -22q8 -8 14 -10q4 -4 7 -5t7 -6q4 -2 6.5 -4t6.5 -4l12 -6q8 -4 13 -7t12 -5q6 -2 11 -4t9 -4t8 -2t8 -2t9 -3q2 0 4 -2h-4q-2 0 -4.5 -1t-6.5 -1q-4 -2 -16 -2q-6 -2 -23 -2q-6 0 -13 1t-15 1q-6 2 -17 2q-12 4 -18 4 l-18 7l-19 6q-10 4 -20.5 9t-20.5 9t-20.5 11.5t-20.5 13.5q-10 8 -19 15t-20 18q-20 16 -38.5 38.5t-34.5 47.5q-16 27 -27.5 55.5t-18.5 62.5q-2 8 -2 16.5t-2 16.5z" />
<glyph unicode="|" horiz-adv-x="290" d="M104 -467v2050h86v-2050h-86z" />
<glyph unicode="}" horiz-adv-x="595" d="M102 -238q0 2 2 2q6 0 11 3q4 2 8 2t8 2t9 4t12 4q10 4 22 12q4 2 7 3t7 3t6.5 4t6.5 4q4 4 7 5.5t7 5.5q8 4 14 10q8 4 14.5 10t14.5 12q31 27 55 62q14 18 25.5 36.5t21.5 41.5q10 20 16.5 41.5t8.5 44.5q2 4 1 10t1 10v6v2l-2 15v14q-2 2 -2 6q-2 4 -2 8l-4 11 q-4 10 -9.5 17t-9.5 17q-8 10 -15 18.5t-17 18.5q-8 10 -17.5 21.5t-19.5 23.5q-4 4 -9.5 11.5t-9.5 13.5q-10 14 -16 29q-16 29 -21.5 60.5t-3.5 59.5v5v2v2v2l2 4l2 12q0 8 3 12q2 4 2 7.5t2 7.5q4 16 8 26q8 16 12 23q27 45 68 61q16 10 30.5 13.5t26.5 5.5q-27 4 -57 18 q-41 20 -68 62q-4 6 -12 22q-4 6 -5 13.5t-3 13.5q-2 4 -2 7t-2 7q-2 6 -3 12l-2 13l-2 6v2v4v2q-2 29 3.5 60.5t21.5 62.5q6 14 16 27q4 6 9.5 13t9.5 13q10 10 19 21.5t18 21.5q10 10 17 18.5t15 18.5q4 10 9.5 18.5t9.5 18.5l4 8q0 6 2 8q0 4 2 8v13l2 14v2v6 q-2 4 -1 10.5t-1 10.5q-2 23 -8 44t-17 42q-18 43 -47 78q-25 33 -55 61q-8 6 -14 12t-15 11q-4 4 -7 6t-7 6q-4 2 -7 4t-7 4t-6 4t-7 4q-4 2 -7 3t-7 5l-22 11q-6 2 -11.5 4t-9.5 4q-12 4 -16 4q-8 4 -11 4h-2h4q2 0 4.5 1t6.5 1q4 2 7 2t9 2h23h13t15 -2q4 0 8.5 -1 t8.5 -1q4 -2 9 -2t9 -2q8 -4 19 -4q6 -4 18 -8q23 -8 39 -19q25 -10 41 -24q25 -14 41 -31q43 -41 72 -88q35 -55 47 -119q2 -8 2 -15t2 -18v-8v-4v-8v-12q-2 -6 -2 -17l-4 -18q-2 -18 -11 -37q-10 -33 -34 -64q-10 -12 -20.5 -24t-20.5 -23q-20 -20 -38 -36.5t-28 -32.5 q-20 -29 -27 -72v-2v-2v4v-2v-2v-4v-12q0 -4 -1 -6.5t1 -6.5v-8q0 -18 7 -33q6 -29 30 -53q10 -10 21.5 -19.5t21.5 -15.5q10 -4 19.5 -8t15.5 -8q4 -2 8 -2q2 0 4 -2q-2 -2 -4 -2t-3 -1t-5 -1q-6 -4 -15 -7.5t-20 -9.5q-10 -6 -21.5 -14t-21.5 -19q-25 -25 -30 -55 q-6 -16 -7 -33v-8q-2 -2 -1 -5t1 -5v-12v-6v-2v2v-2q6 -41 27 -74q10 -16 27.5 -32.5t38.5 -37.5q10 -10 20 -21.5t21 -25.5q23 -31 34 -61q4 -10 6.5 -18.5t4.5 -18.5l4 -21q0 -10 2 -14v-14v-9v-4v-8q-2 -8 -2 -16t-2 -17q-12 -63 -47 -118q-33 -53 -72 -86 q-10 -10 -20.5 -17.5t-20.5 -15.5q-10 -6 -20.5 -13.5t-20.5 -11.5t-19.5 -9t-19.5 -9l-18 -6q-4 -2 -9.5 -3t-9.5 -4q-6 0 -18 -4q-10 0 -17 -2q-8 0 -15 -1t-13 -1q-16 0 -23 2q-12 0 -16 2q-4 0 -6 1t-5 1h-4z" />
<glyph unicode="~" horiz-adv-x="1095" d="M104 545l2 2q0 -2 5 6q4 4 8 11t12 16q12 16 33.5 38.5t52.5 45.5q29 23 70 45q23 10 45 16t49 10l14 2h2h2h4h7h12h6h6q33 -6 62 -18q29 -14 49 -33.5t37 -36.5q31 -37 57 -49q20 -8 31 -10h8l6 -2h-2h4h23q16 2 35.5 5t35.5 9q41 10 70 25q16 6 30.5 12t28.5 12l45 23 l17.5 7t11.5 7q6 4 10 6q-2 0 -2 -2q-2 -2 -2 -4t-2 -4q-4 -4 -9 -10t-11 -15q-8 -10 -17.5 -19t-19.5 -19q-25 -25 -51 -43q-29 -23 -72 -43q-39 -20 -94 -33q-14 0 -23 -2h-2h-4h-2h-6h-14q-35 4 -60 14q-8 4 -14 6t-15 6l-24 19q-10 10 -19.5 18t-19.5 19q-33 39 -57 53 q-14 8 -29 12h-2l-6 2h-13l-6 2h2h-4h-8q-33 0 -74 -10q-37 -12 -67 -25q-16 -6 -30.5 -13t-29.5 -13q-12 -8 -22 -13.5t-21 -11.5q-10 -4 -17 -7t-11 -7q-7 -4 -11 -6z" />
<glyph unicode="&#xa1;" horiz-adv-x="391" d="M104 0v1243h185v-1243h-185zM106 1411q0 37 27 63.5t64 26.5t63.5 -26.5t26.5 -63.5q0 -39 -27 -65.5t-63 -26.5q-37 0 -64 26.5t-27 65.5z" />
<glyph unicode="&#xa2;" horiz-adv-x="1230" d="M100 535q0 96 32 183t88 156.5t134 117.5t168 69v229h185v-221q141 -16 251.5 -99t169.5 -206l-180 -53q-39 66 -101.5 110.5t-139.5 61.5v-699q78 16 141 62.5t100 111.5l180 -53q-59 -125 -169.5 -207t-251.5 -100v-219h-185v229q-90 20 -168 68.5t-134 118t-88 156.5 t-32 184zM287 532q0 -117 65.5 -206.5t169.5 -126.5v669q-104 -37 -169.5 -128t-65.5 -208z" />
<glyph unicode="&#xa4;" horiz-adv-x="972" d="M100 1079h193l63 -86q57 25 127 25q68 0 127 -25l64 86h192l-133 -180q33 -41 51.5 -92.5t18.5 -108.5q0 -59 -20.5 -112.5t-55.5 -96.5l127 -174h-192l-62 84q-57 -23 -117 -22q-59 0 -116 22l-62 -84h-192l127 174q-35 41 -56.5 95.5t-21.5 113.5q0 57 18.5 108.5 t52.5 92.5zM272 698q0 -66 35 -116q23 -35 55.5 -56.5t73.5 -31.5q20 -6 47 -7q24 1 47 7q82 18 129 88q16 25 25.5 54.5t9.5 61.5q0 29 -8 55.5t-22 51.5q-43 72 -123 94q-25 8 -58 8t-59 -8q-39 -10 -69.5 -34.5t-53.5 -59.5q-29 -51 -29 -107z" />
<glyph unicode="&#xa5;" horiz-adv-x="1359" d="M100 1501h293l287 -495l287 495h293l-433 -749l-6 -11h172l-41 -225h-145v-98h186l-41 -221h-145v-197h-254v197h-186l41 221h145v98h-186l41 225h131l-7 11z" />
<glyph unicode="&#xa8;" horiz-adv-x="817" d="M102 1679q0 37 27 63.5t64 26.5q39 0 64.5 -26.5t25.5 -63.5q0 -39 -26 -65.5t-64 -26.5q-37 0 -64 26.5t-27 65.5zM532 1679q0 37 26 63.5t65 26.5q37 0 63.5 -26.5t26.5 -63.5q0 -39 -27 -65.5t-63 -26.5q-39 0 -65 26.5t-26 65.5z" />
<glyph unicode="&#xa9;" horiz-adv-x="966" d="M104 698q0 78 30 147.5t82 122t121 82t148 29.5q80 0 148.5 -29.5t121 -82t82 -122t29.5 -147.5q0 -80 -29.5 -148.5t-82 -120.5t-121 -82t-148.5 -30t-148.5 30t-120.5 82t-82 120.5t-30 148.5zM180 698q0 -63 23.5 -118.5t65.5 -97.5t97.5 -65.5t118.5 -23.5 t118.5 23.5t96.5 65.5t66 97.5t25 118.5t-25 118.5t-66 96.5t-96.5 66t-118.5 25t-118.5 -25t-97.5 -66t-65.5 -96t-23.5 -119zM252 698q0 -49 18.5 -92t50 -74.5t73.5 -50t91 -18.5q72 0 128.5 38t84.5 97l-77 23q-20 -35 -55.5 -56.5t-78.5 -21.5q-66 0 -110.5 45 t-44.5 110q0 63 45 108.5t110 45.5q43 0 78 -21.5t56 -56.5l77 25q-29 59 -85 97t-128 38q-49 0 -91 -18.5t-73.5 -51.5t-50 -74.5t-18.5 -91.5z" />
<glyph unicode="&#xaa;" horiz-adv-x="839" d="M100 762q0 66 26 123t69 100t100 68.5t123 25.5q57 0 112.5 -21.5t96.5 -60.5v82h108v-635h-108v76q-41 -35 -96.5 -55.5t-112.5 -20.5q-66 0 -123 26t-100 69t-69 100t-26 123zM209 762q0 -43 16.5 -81t45 -66.5t66.5 -45t81 -16.5t81 16.5t66.5 45t45 66.5t16.5 81 t-16.5 81t-45 66.5t-66.5 45t-81 16.5t-81 -16.5t-66.5 -45t-45 -66.5t-16.5 -81z" />
<glyph unicode="&#xab;" horiz-adv-x="1136" d="M98 530l545 549h102l-544 -549l526 -530h-102zM385 530l545 549h102l-545 -549l527 -530h-103z" />
<glyph unicode="&#xad;" horiz-adv-x="616" d="M104 500v80h412v-80h-412z" />
<glyph unicode="&#xae;" horiz-adv-x="964" d="M100 698q0 78 30 147.5t82 122t121.5 82t147.5 29.5q80 0 149.5 -29.5t122 -82t82 -122t29.5 -147.5q0 -80 -29.5 -148.5t-82 -120.5t-122 -82t-149.5 -30q-78 0 -147.5 30t-121.5 82t-82 120.5t-30 148.5zM178 698q0 -63 23.5 -118.5t64.5 -97.5t96.5 -65.5t118.5 -23.5 t118.5 23.5t97.5 65.5t65.5 97.5t23.5 118.5t-23.5 118.5t-65.5 96.5t-97.5 66t-118.5 25t-118.5 -25t-96.5 -66t-64.5 -96t-23.5 -119zM322 477h75v371h105q37 0 63.5 -26.5t26.5 -63.5q0 -39 -26.5 -64.5t-63.5 -25.5h-92l16 -76h57l84 -115h95l-95 129q45 18 73 59.5 t28 92.5q0 68 -49.5 117t-116.5 49h-180v-39v-37v-371z" />
<glyph unicode="&#xb0;" horiz-adv-x="870" d="M100 938q0 68 27 128t73 104t106 71t128 27t128.5 -27t106.5 -71t72.5 -104t26.5 -128q0 -70 -26.5 -130t-72.5 -104.5t-106.5 -70t-128.5 -25.5t-128 25.5t-106 70t-73 104.5t-27 130zM254 938q0 -78 51 -131t129 -53t129 53t51 131q0 74 -51 127t-129 53t-129 -53 t-51 -127z" />
<glyph unicode="&#xb1;" horiz-adv-x="892" d="M104 133v80h693v-80h-693zM104 580v79h306v308h79v-308h308v-79h-308v-306h-79v306h-306z" />
<glyph unicode="&#xb2;" horiz-adv-x="700" d="M101 614v111q35 19 75.5 42.5t79.5 51.5t75 59t63 62.5t43.5 62.5t16.5 60q0 4 -2 21t-14 35t-36.5 33t-67.5 15q-63 0 -96 -37q-18 -20 -22 -40t-4 -27h-110q0 40 15 78.5t44 68.5t72.5 48.5t100.5 18.5t100 -18.5t72 -48.5t43.5 -68.5t14.5 -78.5q0 -50 -22.5 -97.5 t-58.5 -90.5t-81 -81.5t-89 -68.5h286v-111h-498z" />
<glyph unicode="&#xb3;" horiz-adv-x="700" d="M100 799l95 94l-1 -23v-6q0 -38 17 -69q19 -38 55 -60.5t80 -22.5q31 0 58.5 12t48 32.5t32.5 48t12 59.5q0 30 -11.5 57t-31 47.5t-46 33t-56.5 13.5l-2 1l-78 51l76 115h-221v100h407l-116 -174q41 -13 74.5 -36.5t57 -55.5t37 -71t13.5 -81q0 -53 -20.5 -99 t-54.5 -80.5t-81 -54.5t-99 -20q-64 0 -120 30t-91 85q-12 15 -19.5 32.5t-13.5 35.5z" />
<glyph unicode="&#xb4;" horiz-adv-x="421" d="M12 1171l123 410h184l-251 -410h-56z" />
<glyph unicode="&#xb5;" horiz-adv-x="1089" d="M104 -467v950v598h185h2v-618q4 -49 25.5 -99.5t55.5 -90.5t79 -64.5t98 -24.5q55 0 102 28t81 72t53.5 98t19.5 110v589h184v-589q0 -90 -31.5 -177.5t-89 -158t-139.5 -113.5t-180 -43q-76 0 -140.5 25.5t-117.5 68.5v-561h-187z" />
<glyph unicode="&#xb9;" horiz-adv-x="358" d="M100 1113l47 166h111v-665h-111v499h-47z" />
<glyph unicode="&#xba;" horiz-adv-x="772" d="M102 1300q0 57 22.5 108.5t61.5 90.5t90.5 61.5t110.5 22.5q57 0 108.5 -22.5t90.5 -61.5t62.5 -90t23.5 -109q0 -59 -23.5 -110t-62.5 -90t-90.5 -60.5t-108.5 -21.5q-59 0 -110.5 21.5t-90.5 60.5t-61.5 90t-22.5 110zM231 1300q0 -66 45 -111.5t111 -45.5t109 46 t43 111q0 63 -43 107.5t-109 44.5t-111 -44t-45 -108z" />
<glyph unicode="&#xbb;" horiz-adv-x="1134" d="M98 0l545 549l-526 530h102l526 -530l-544 -549h-103zM385 0l545 549l-527 530h103l526 -530l-545 -549h-102z" />
<glyph unicode="&#xbc;" horiz-adv-x="1249" d="M102 -141l770 1865h93l-768 -1865h-95zM184 1311l56 190h127v-764h-127v574h-56zM500 86l561 678v-559h88v-119h-88v-86h-119v86h-442zM752 205h190v229z" />
<glyph unicode="&#xbd;" horiz-adv-x="1230" d="M100 -141l770 1865h93l-768 -1865h-95zM182 1311l56 190h127v-764h-127v574h-56zM559 0v127q61 31 132 77t131.5 99t101.5 108.5t41 104.5q0 4 -3.5 23.5t-16.5 41t-40.5 38t-79.5 16.5q-74 0 -108 -41q-20 -23 -25.5 -46.5t-5.5 -31.5h-127q0 45 17.5 90t51.5 80 t83 56.5t114 21.5q66 0 116 -21.5t84 -56.5t50.5 -80t16.5 -90q0 -57 -27 -111.5t-68 -104.5t-92 -93t-102 -80h327v-127h-571z" />
<glyph unicode="&#xbe;" horiz-adv-x="1484" d="M106 946v6l107 109v-27v-8q0 -41 18 -78q23 -43 64 -68.5t90 -25.5q72 0 122 50t50 122t-47 121t-119 51h-2l-88 59l86 132h-250v112h461l-131 -198q92 -27 149.5 -103t57.5 -174q0 -59 -22.5 -111.5t-62.5 -91.5t-92.5 -61.5t-111.5 -22.5q-74 0 -137.5 34t-104.5 95 q-25 37 -37 78zM336 -141l770 1865h92l-768 -1865h-94zM733 86l561 678v-559h88v-119h-88v-86h-118v86h-443zM985 205h191v229z" />
<glyph unicode="&#xbf;" horiz-adv-x="1150" d="M100 451q0 -35 2 -67t10.5 -64.5t23.5 -66.5t42 -75q51 -82 146 -129q100 -49 251 -49q254 0 369 139q27 33 47.5 61.5t33.5 62.5t19.5 78t6.5 110v20h-183v-20q0 -49 -4 -79t-11 -49.5t-19.5 -35t-28.5 -33.5q-35 -37 -89 -54.5t-141 -17.5q-164 0 -227 72 q-16 18 -28.5 33.5t-20.5 35t-12 48t-4 75.5q0 49 27.5 91.5t68.5 58.5q43 16 92 36.5t92 55.5q102 84 103 213v338h-181v-338q0 -43 -34.5 -70.5t-135.5 -64.5q-35 -12 -71.5 -41t-69.5 -70t-53.5 -93t-20.5 -111zM485 1413q0 37 27 63.5t63 26.5q37 0 64 -26.5t27 -63.5 q0 -39 -27 -65.5t-64 -26.5t-63.5 26.5t-26.5 65.5z" />
<glyph unicode="&#xc0;" d="M100 0h1502l-750 1501zM473 229l379 760l379 -760h-758zM565 1763l78 166l512 -295l-37 -78z" />
<glyph unicode="&#xc1;" d="M100 0l752 1501l750 -1501h-1502zM473 229h758l-379 760zM545 1630l512 295l78 -166l-553 -207z" />
<glyph unicode="&#xc2;" d="M100 0l752 1501l750 -1501h-1502zM418 1612l313 180l49 -102l-340 -127zM473 229h758l-379 760zM903 1690l49 102l314 -180l-23 -49z" />
<glyph unicode="&#xc3;" d="M100 0h1502l-750 1501zM440 1618v2q0 2 4 6q6 8 19 25q12 14 30.5 33.5t45.5 39.5q14 10 29.5 19.5t33.5 19.5q16 8 38 14.5t44 10.5h12l2 2h2h2h3l4 -2h10h6h6q16 -2 28.5 -6t24.5 -10q25 -12 43.5 -30t32.5 -32q29 -31 51 -43q10 -4 27 -8l8 -2h4h-2h2h2h21q31 4 63 12 q16 4 30.5 9t31.5 12q14 6 26.5 12t24.5 10q10 6 20.5 11.5t18.5 9.5t15 7t11 7q6 2 9 4q-2 0 -2 -2q-2 -2 -2 -3t-2 -3q-4 -4 -7.5 -10.5t-11.5 -14.5q-6 -6 -13 -14t-18 -18q-10 -10 -21 -19.5t-24 -19.5q-31 -20 -63 -37q-37 -20 -82 -29q-14 0 -21 -2h-2h-4h-2h-6h-12 q-29 4 -51 12l-25 13q-6 4 -12 7t-11 7q-10 10 -18 17t-14 16l-28.5 28.5t-25.5 18.5q-8 6 -24 10q0 2 -2 2h-4l-10 2h-7h-2h4h-2h-2h-8q-29 0 -63 -10q-16 -4 -31.5 -9t-30.5 -12q-14 -6 -26.5 -12t-24.5 -10q-10 -6 -20.5 -11.5t-18.5 -9.5l-14 -7t-10 -7q-7 -4 -9 -6z M473 229l379 760l379 -760h-758z" />
<glyph unicode="&#xc4;" d="M100 0h1502l-750 1501zM473 229l379 760l379 -760h-758zM537 1679q0 37 26.5 63.5t63.5 26.5q39 0 64.5 -26.5t25.5 -63.5q0 -39 -25.5 -65.5t-64.5 -26.5q-37 0 -63.5 26.5t-26.5 65.5zM967 1679q0 37 25.5 63.5t64.5 26.5q37 0 63.5 -26.5t26.5 -63.5 q0 -39 -26.5 -65.5t-63.5 -26.5q-39 0 -64.5 26.5t-25.5 65.5z" />
<glyph unicode="&#xc5;" d="M100 0l752 1501l750 -1501h-1502zM473 229h758l-379 760zM674 1716q0 72 51 122t123 50t123 -50t51 -122q0 -37 -14.5 -67.5t-38 -54t-55 -37t-66.5 -13.5t-66.5 13.5t-55.5 37t-38 54t-14 67.5zM754 1716q0 -41 26.5 -68.5t67.5 -27.5t67.5 27.5t26.5 68.5 q0 39 -26.5 66.5t-67.5 27.5t-67.5 -27.5t-26.5 -66.5z" />
<glyph unicode="&#xc8;" horiz-adv-x="1329" d="M104 0h1127v254h-873v182h533l49 254h-582v557h873v254h-1127v-127v-127v-557v-254v-182v-254zM360 1763l78 166l512 -295l-37 -78z" />
<glyph unicode="&#xc9;" horiz-adv-x="1333" d="M104 0v254v182v254v557v127v127h1127v-254h-873v-557h582l-49 -254h-533v-182h873v-254h-1127zM395 1630l512 295l78 -166l-553 -207z" />
<glyph unicode="&#xca;" horiz-adv-x="1333" d="M104 0v254v182v254v557v127v127h1127v-254h-873v-557h582l-49 -254h-533v-182h873v-254h-1127zM252 1612l313 180l49 -102l-340 -127zM737 1690l49 102l314 -180l-23 -49z" />
<glyph unicode="&#xcb;" horiz-adv-x="1333" d="M104 0h1127v254h-873v182h533l49 254h-582v557h873v254h-1127v-127v-127v-557v-254v-182v-254zM362 1679q0 37 27 63.5t64 26.5q39 0 64.5 -26.5t25.5 -63.5q0 -39 -25.5 -65.5t-64.5 -26.5q-37 0 -64 26.5t-27 65.5zM793 1679q0 37 25.5 63.5t64.5 26.5q37 0 63.5 -26.5 t26.5 -63.5q0 -39 -26.5 -65.5t-63.5 -26.5q-39 0 -64.5 26.5t-25.5 65.5z" />
<glyph unicode="&#xcc;" horiz-adv-x="786" d="M102 1763l78 166l512 -295l-37 -78zM240 0v1501h254v-1501h-254z" />
<glyph unicode="&#xcd;" horiz-adv-x="786" d="M98 1630l512 295l78 -166l-553 -207zM270 0v1501h254v-1501h-254z" />
<glyph unicode="&#xce;" horiz-adv-x="1038" d="M94 1612l314 180l49 -102l-340 -127zM391 0v1501h254v-1501h-254zM580 1690l49 102l313 -180l-22 -49z" />
<glyph unicode="&#xcf;" horiz-adv-x="817" d="M102 1679q0 37 27 63.5t64 26.5q39 0 64.5 -26.5t25.5 -63.5q0 -39 -26 -65.5t-64 -26.5q-37 0 -64 26.5t-27 65.5zM272 0v1501h254v-1501h-254zM532 1679q0 37 26 63.5t65 26.5q37 0 63.5 -26.5t26.5 -63.5q0 -39 -27 -65.5t-63 -26.5q-39 0 -65 26.5t-26 65.5z" />
<glyph unicode="&#xd0;" horiz-adv-x="1593" d="M100 625l41 252h160v624h592q113 0 220.5 -50t190 -153.5t134 -260t51.5 -369.5t-52.5 -344t-136 -203t-190 -96.5t-217.5 -24.5h-592v625h-201zM547 254h346q176 0 248 63q31 27 51 69t31.5 90t15.5 98.5t4 97.5q0 188 -42 297.5t-87 165.5q-90 113 -221 112h-346v-370 h203l-41 -252h-162v-371z" />
<glyph unicode="&#xd1;" horiz-adv-x="1327" d="M104 0h228v922l592 -613v342l-820 850v-1501zM270 1618v2q0 2 4 6q6 8 19 25q12 14 30.5 33.5t45.5 39.5q14 10 29.5 19.5t33.5 19.5q16 8 38 14.5t44 10.5h12l2 2h2h2h3l4 -2h10h6h6q16 -2 28.5 -6t24.5 -10q25 -12 43.5 -30t32.5 -32q29 -31 51 -43q10 -4 27 -8l8 -2h4 h-2h2h2h21q31 4 63 12q16 4 30.5 9t31.5 12q14 6 26.5 12t24.5 10q10 6 20.5 11.5t18.5 9.5t15 7t11 7q6 2 9 4q-2 0 -2 -2q-2 -2 -2 -3t-2 -3q-4 -4 -7.5 -10.5t-11.5 -14.5q-6 -6 -13 -14t-18 -18q-10 -10 -21 -19.5t-24 -19.5q-31 -20 -63 -37q-37 -20 -82 -29 q-14 0 -21 -2h-2h-4h-2h-6h-12q-29 4 -51 12l-25 13q-6 4 -12 7t-10 7q-10 10 -18.5 17t-14.5 16l-28.5 28.5t-25.5 18.5q-8 6 -24 10q0 2 -2 2h-4l-10 2h-7h-2h4h-2h-2h-8q-29 0 -63 -10q-16 -4 -31.5 -9t-30.5 -12q-14 -6 -26.5 -12t-24.5 -10q-10 -6 -20.5 -11.5 t-18.5 -9.5l-14 -7t-10 -7q-7 -4 -9 -6zM995 236l228 -236v1501h-228v-921v-344z" />
<glyph unicode="&#xd2;" d="M102 750q0 -156 59.5 -292t162 -237.5t238.5 -161t292 -59.5t292 59.5t237.5 161t161 237.5t59.5 292t-59.5 293t-161 238t-237.5 160.5t-292 59.5t-292 -59.5t-238.5 -160.5t-162 -238.5t-59.5 -292.5zM360 750q0 102 39 192t105.5 156.5t157 105.5t192.5 39t192.5 -39 t157 -105.5t105.5 -156.5t39 -192t-39 -192.5t-105.5 -157t-157 -105.5t-192.5 -39t-192.5 39t-157 105.5t-105.5 156.5t-39 193zM565 1763l78 166l512 -295l-37 -78zM733 750q0 51 36 85.5t85 34.5t85 -34.5t36 -85.5q0 -49 -36 -84t-85 -35t-85 34.5t-36 84.5z" />
<glyph unicode="&#xd3;" d="M102 750q0 156 59.5 293t162 238t238.5 160.5t292 59.5t292 -59.5t237.5 -160.5t161 -238.5t59.5 -292.5q0 -156 -59.5 -292t-161 -237.5t-237.5 -161t-292 -59.5t-292 59.5t-238.5 161t-162 237.5t-59.5 292zM360 750q0 -102 39 -192.5t105.5 -157t157 -105.5t192.5 -39 t192.5 39t157 105.5t105.5 157t39 192.5t-39 192t-105.5 156.5t-157 105.5t-192.5 39t-192.5 -39t-157 -105.5t-105.5 -156.5t-39 -192zM565 1630l512 295l78 -166l-553 -207zM733 750q0 51 36 85.5t85 34.5t85 -34.5t36 -85.5q0 -49 -36 -84t-85 -35t-85 34.5t-36 84.5z " />
<glyph unicode="&#xd4;" d="M102 750q0 156 59.5 293t162 238t238.5 160.5t292 59.5t292 -59.5t237.5 -160.5t161 -238.5t59.5 -292.5q0 -156 -59.5 -292t-161 -237.5t-237.5 -161t-292 -59.5t-292 59.5t-238.5 161t-162 237.5t-59.5 292zM360 750q0 -102 39 -192.5t105.5 -157t157 -105.5t192.5 -39 t192.5 39t157 105.5t105.5 157t39 192.5t-39 192t-105.5 156.5t-157 105.5t-192.5 39t-192.5 -39t-157 -105.5t-105.5 -156.5t-39 -192zM436 1612l314 180l49 -102l-340 -127zM733 750q0 51 36 85.5t85 34.5t85 -34.5t36 -85.5q0 -49 -36 -84t-85 -35t-85 34.5t-36 84.5z M922 1690l49 102l313 -180l-22 -49z" />
<glyph unicode="&#xd5;" d="M102 750q0 -156 59.5 -292t162 -237.5t238.5 -161t292 -59.5t292 59.5t237.5 161t161 237.5t59.5 292t-59.5 293t-161 238t-237.5 160.5t-292 59.5t-292 -59.5t-238.5 -160.5t-162 -238.5t-59.5 -292.5zM360 750q0 102 39 192t105.5 156.5t157 105.5t192.5 39t192.5 -39 t157 -105.5t105.5 -156.5t39 -192t-39 -192.5t-105.5 -157t-157 -105.5t-192.5 -39t-192.5 39t-157 105.5t-105.5 156.5t-39 193zM455 1618v2q0 2 4 6q6 8 18 25q12 14 30.5 33.5t45.5 39.5q14 10 29.5 19.5t33.5 19.5q16 8 38 14.5t44 10.5h13l2 2h2h2h2l4 -2h10h6h6 q16 -2 28.5 -6t25.5 -10q25 -12 43 -30l32 -32q29 -31 52 -43q10 -4 26 -8l9 -2h4h-2h2h2h20q31 4 64 12q16 4 30.5 9t30.5 12q14 6 26.5 12t24.5 10q10 6 20.5 11.5t18.5 9.5t15.5 7t11.5 7q6 2 8 4q-2 0 -2 -2q-2 -2 -2 -3t-2 -3q-4 -4 -7 -10.5t-12 -14.5q-6 -6 -13 -14 t-17 -18t-21.5 -19.5t-23.5 -19.5q-31 -20 -64 -37q-37 -20 -82 -29q-14 0 -20 -2h-2h-4h-2h-7h-12q-29 4 -51 12l-25 13q-6 4 -12 7t-10 7q-10 10 -18.5 17t-14.5 16l-28.5 28.5t-24.5 18.5q-8 6 -25 10q0 2 -2 2h-4l-10 2h-6h-2h4h-2h-2h-9q-29 0 -63 -10q-16 -4 -31.5 -9 t-29.5 -12q-14 -6 -26.5 -12t-25.5 -10q-10 -6 -20 -11.5t-19 -9.5l-14 -7t-10 -7q-6 -4 -8 -6zM733 750q0 51 36 85.5t85 34.5t85 -34.5t36 -85.5q0 -49 -36 -84t-85 -35t-85 34.5t-36 84.5z" />
<glyph unicode="&#xd6;" d="M102 750q0 -156 59.5 -292t162 -237.5t238.5 -161t292 -59.5t292 59.5t237.5 161t161 237.5t59.5 292t-59.5 293t-161 238t-237.5 160.5t-292 59.5t-292 -59.5t-238.5 -160.5t-162 -238.5t-59.5 -292.5zM360 750q0 102 39 192t105.5 156.5t157 105.5t192.5 39t192.5 -39 t157 -105.5t105.5 -156.5t39 -192t-39 -192.5t-105.5 -157t-157 -105.5t-192.5 -39t-192.5 39t-157 105.5t-105.5 156.5t-39 193zM555 1679q0 37 26.5 63.5t63.5 26.5q39 0 64.5 -26.5t25.5 -63.5q0 -39 -25.5 -65.5t-64.5 -26.5q-37 0 -63.5 26.5t-26.5 65.5zM733 750 q0 51 36 85.5t85 34.5t85 -34.5t36 -85.5q0 -49 -36 -84t-85 -35t-85 34.5t-36 84.5zM985 1679q0 37 25.5 63.5t64.5 26.5q37 0 63.5 -26.5t26.5 -63.5q0 -39 -26.5 -65.5t-63.5 -26.5q-39 0 -64.5 26.5t-25.5 65.5z" />
<glyph unicode="&#xd7;" horiz-adv-x="819" d="M102 989h158l152 -201l151 201h158l-232 -303l220 -287h-154l-143 187l-144 -187h-155l221 287z" />
<glyph unicode="&#xd8;" d="M102 750q0 156 59.5 293t162 238t238.5 160.5t292 59.5q174 0 330 -76l55 76h297l-154 -217q104 -104 163 -240.5t59 -293.5q0 -156 -59.5 -292t-161 -237.5t-237.5 -161t-292 -59.5q-178 0 -330 76l-55 -76h-297l154 217q-104 102 -164 239.5t-60 293.5zM360 750 q0 -92 32 -173t85 -145l553 778q-41 16 -85 24.5t-91 8.5q-102 0 -192.5 -39t-157 -105.5t-105.5 -156.5t-39 -192zM676 289q88 -33 178 -33q102 0 192.5 39t157 105.5t105.5 156.5t39 193q0 92 -32 173t-87 146z" />
<glyph unicode="&#xd9;" horiz-adv-x="1372" d="M104 492v1009h252v-1009q0 -242 328 -242q162 0 247 63.5t85 182.5v1005h252v-1005q0 -86 -31 -174.5t-100.5 -160t-180 -116.5t-272.5 -45q-289 0 -444 152q-66 66 -101 152.5t-35 187.5zM383 1763l78 166l512 -295l-37 -78z" />
<glyph unicode="&#xda;" horiz-adv-x="1372" d="M104 492v1009h252v-1009q0 -242 328 -242q162 0 247 63.5t85 182.5v1005h252v-1005q0 -86 -31 -174.5t-100.5 -160t-180 -116.5t-272.5 -45q-289 0 -444 152q-66 66 -101 152.5t-35 187.5zM395 1630l512 295l78 -166l-553 -207z" />
<glyph unicode="&#xdb;" horiz-adv-x="1372" d="M104 492v1009h252v-1009q0 -242 328 -242q162 0 247 63.5t85 182.5v1005h252v-1005q0 -86 -31 -174.5t-100.5 -160t-180 -116.5t-272.5 -45q-289 0 -444 152q-66 66 -101 152.5t-35 187.5zM268 1612l314 180l49 -102l-340 -127zM754 1690l49 102l313 -180l-22 -49z" />
<glyph unicode="&#xdc;" horiz-adv-x="1372" d="M104 492v1009h252v-1009q0 -242 328 -242q162 0 247 63.5t85 182.5v1005h252v-1005q0 -86 -31 -174.5t-100.5 -160t-180 -116.5t-272.5 -45q-289 0 -444 152q-66 66 -101 152.5t-35 187.5zM381 1679q0 37 26.5 63.5t63.5 26.5q39 0 64.5 -26.5t25.5 -63.5 q0 -39 -25.5 -65.5t-64.5 -26.5q-37 0 -63.5 26.5t-26.5 65.5zM811 1679q0 37 25.5 63.5t64.5 26.5q37 0 63.5 -26.5t26.5 -63.5q0 -39 -26.5 -65.5t-63.5 -26.5q-39 0 -64.5 26.5t-25.5 65.5z" />
<glyph unicode="&#xdd;" horiz-adv-x="1361" d="M102 1501h293l287 -495l287 495h293l-433 -749l-20 -35v-717h-254v717l-20 35zM395 1630l512 295l78 -166l-553 -207z" />
<glyph unicode="&#xe0;" horiz-adv-x="1280" d="M100 539q0 -111 42 -209.5t116 -172t172 -115.5t209 -42q102 0 192.5 36t161.5 97v-133h185v1079h-185v-135q-72 63 -162 99t-192 36q-111 0 -209 -42t-172 -115.5t-116 -172t-42 -210.5zM285 539q0 74 27.5 138t75.5 112.5t112.5 76t138.5 27.5t138.5 -27.5t112.5 -76 t75.5 -113t27.5 -137.5q0 -74 -27.5 -138.5t-75.5 -112.5t-112.5 -76t-138.5 -28t-138.5 28t-112.5 76t-75.5 112.5t-27.5 138.5zM344 1382l78 166l512 -295l-37 -77z" />
<glyph unicode="&#xe1;" horiz-adv-x="1280" d="M102 555q0 113 42 211t116 172t172 116t209 42q102 0 192.5 -36t161.5 -99v135h185v-1080h-185v134q-72 -61 -162 -97.5t-192 -36.5q-111 0 -209 42t-172 116t-116 172t-42 209zM287 555q0 -74 27.5 -138.5t75.5 -112.5t112.5 -75.5t138.5 -27.5t138.5 27.5t112.5 75.5 t75.5 112.5t27.5 138.5t-27.5 138.5t-75.5 112.5t-112.5 75.5t-138.5 27.5t-138.5 -27.5t-112.5 -75.5t-75.5 -112.5t-27.5 -138.5zM346 1270l512 295l78 -166l-553 -207z" />
<glyph unicode="&#xe2;" horiz-adv-x="1280" d="M100 539q0 113 42 211t116 171.5t172 115.5t209 42q102 0 192.5 -35.5t161.5 -99.5v135h185v-1079h-185v133q-72 -61 -162 -97t-192 -36q-111 0 -209 42t-172 115.5t-116 172t-42 209.5zM285 539q0 -74 27.5 -138.5t75.5 -112.5t112.5 -76t138.5 -28t138.5 28t112.5 76 t75.5 112.5t27.5 138.5t-27.5 138t-75.5 112.5t-112.5 76t-138.5 27.5t-138.5 -27.5t-112.5 -76t-75.5 -113t-27.5 -137.5zM387 1247l252 250l252 -250h-143l-109 107l-109 -107h-143z" />
<glyph unicode="&#xe3;" horiz-adv-x="1286" d="M104 539q0 -111 42 -209.5t116 -172t172 -115.5t211 -42q102 0 192.5 36t161.5 97v-133h185v1079h-185v-133q-72 61 -161.5 97t-192.5 36q-113 0 -211 -42t-172 -115.5t-116 -172t-42 -210.5zM291 539q0 74 27.5 138t75.5 112.5t112.5 76t138.5 27.5t138.5 -27.5 t112.5 -76t75.5 -113t27.5 -137.5q0 -74 -27.5 -138.5t-75.5 -112.5t-112.5 -76t-138.5 -28t-138.5 28t-112.5 76t-75.5 112.5t-27.5 138.5zM297 1221v2q0 2 4 6l18 24q12 14 31 34t45 40q14 10 29.5 19.5t34.5 19.5q16 8 37.5 14t44.5 11h12l2 2h2h2h2l4 -2h10h7h6 q16 -2 28.5 -6.5t24.5 -10.5q25 -12 43 -29.5t33 -31.5q29 -31 51 -43q10 -4 27 -8l8 -2h4h-2h2h2h20q31 4 64 12q16 4 30.5 9t30.5 11q14 6 26.5 12.5t25.5 10.5q10 6 20 11l18 9t15.5 7.5t11.5 7.5q6 2 8 4q-2 0 -2 -2q-2 -2 -2 -3t-2 -3q-4 -4 -7 -10.5t-11 -14.5 q-6 -6 -13.5 -14.5t-17.5 -18.5t-21.5 -19t-23.5 -20q-31 -20 -64 -37q-37 -20 -81 -28q-14 0 -21 -2h-2h-4h-2h-6h-13q-29 4 -51 12l-24 12q-6 4 -12.5 7.5t-10.5 7.5q-10 10 -18 17t-15 15l-28.5 28.5t-24.5 18.5q-8 6 -24 11q0 2 -3 2h-4l-10 2h-6h-2h4h-2h-2h-8 q-29 0 -64 -10q-16 -4 -31.5 -9.5t-29.5 -11.5t-26.5 -12t-24.5 -10q-10 -6 -20.5 -11.5t-18.5 -9.5t-14.5 -7t-10.5 -7q-6 -4 -8 -6z" />
<glyph unicode="&#xe4;" horiz-adv-x="1286" d="M104 539q0 -111 42 -209.5t116 -172t172 -115.5t211 -42q102 0 192.5 36t161.5 97v-133h185v1079h-185v-133q-72 61 -161.5 97t-192.5 36q-113 0 -211 -42t-172 -115.5t-116 -172t-42 -210.5zM291 539q0 74 27.5 138t75.5 112.5t112.5 76t138.5 27.5t138.5 -27.5 t112.5 -76t75.5 -113t27.5 -137.5q0 -74 -27.5 -138.5t-75.5 -112.5t-112.5 -76t-138.5 -28t-138.5 28t-112.5 76t-75.5 112.5t-27.5 138.5zM371 1249q0 37 26.5 63.5t63.5 26.5q39 0 64.5 -26.5t25.5 -63.5q0 -39 -25.5 -65.5t-64.5 -26.5q-37 0 -63.5 26.5t-26.5 65.5z M801 1249q0 37 25.5 63.5t64.5 26.5q37 0 63.5 -26.5t26.5 -63.5q0 -39 -26.5 -65.5t-63.5 -26.5q-39 0 -64.5 26.5t-25.5 65.5z" />
<glyph unicode="&#xe5;" horiz-adv-x="1286" d="M104 539q0 113 42 211t116 171.5t172 115.5t211 42q102 0 192.5 -35.5t161.5 -97.5v133h185v-1079h-185v133q-72 -61 -161.5 -97t-192.5 -36q-113 0 -211 42t-172 115.5t-116 172t-42 209.5zM291 539q0 -74 27.5 -138.5t75.5 -112.5t112.5 -76t138.5 -28t138.5 28 t112.5 76t75.5 112.5t27.5 138.5t-27.5 138t-75.5 112.5t-112.5 76t-138.5 27.5t-138.5 -27.5t-112.5 -76t-75.5 -113t-27.5 -137.5zM473 1348q0 72 51 122t123 50t123 -50.5t51 -121.5q0 -37 -14 -68t-38 -54.5t-55.5 -36.5t-66.5 -13t-66.5 13t-55 36.5t-38 54.5t-14.5 68 zM553 1348q0 -41 26.5 -69t67.5 -28t67.5 28t26.5 69q0 39 -26.5 66.5t-67.5 27.5t-67.5 -28t-26.5 -66z" />
<glyph unicode="&#xe6;" horiz-adv-x="2168" d="M102 539q0 111 42 209t115 171.5t171 115.5t209 42q102 0 192.5 -35.5t161.5 -97.5v133h185v-135q72 63 160.5 98t193.5 35q111 0 209 -42t171 -114.5t114.5 -171t41.5 -208.5q0 -57 -12 -113h-188h-88h-584q35 -106 127 -174t209 -68q88 0 161.5 39t121.5 105l184 -56 q-70 -123 -194 -197.5t-273 -74.5q-104 0 -193.5 35t-160.5 98v-133h-185v133q-72 -61 -162 -97t-192 -36q-111 0 -209 42t-171 115.5t-115 172t-42 209.5zM287 539q0 -74 27.5 -138.5t75.5 -112.5t112.5 -76t138.5 -28t137.5 28t111.5 76t75.5 112.5t27.5 138.5t-27.5 137 t-75.5 111.5t-111.5 76t-137.5 27.5t-138.5 -27.5t-112.5 -76t-75.5 -112t-27.5 -136.5zM1186 610h692q-12 59 -44 110.5t-78 89.5t-103.5 59.5t-120.5 21.5t-120.5 -21.5t-103.5 -59.5t-78 -89t-44 -111z" />
<glyph unicode="&#xe8;" horiz-adv-x="1282" d="M102 539q0 -111 42 -209.5t116 -172t172 -115.5t211 -42q152 0 275.5 75t193.5 197l-184 56q-47 -66 -122 -105t-163 -39q-117 0 -209 69t-127 175h586h86h192q10 57 11 111q0 113 -42 211t-116 171.5t-172 115.5t-209 42q-113 0 -211 -42t-172 -115.5t-116 -172 t-42 -210.5zM297 612q12 59 44 110.5t78 89.5t103.5 59.5t120.5 21.5t120.5 -21.5t103.5 -59.5t79 -89t45 -111h-694zM348 1382l78 166l512 -295l-37 -77z" />
<glyph unicode="&#xe9;" horiz-adv-x="1282" d="M102 539q0 113 42 211t116 171.5t172 115.5t211 42q111 0 209 -42t172 -115.5t116 -172t42 -210.5q0 -53 -11 -111h-192h-86h-586q35 -106 127 -175t209 -69q88 0 163 39t122 105l184 -56q-70 -123 -193.5 -197.5t-275.5 -74.5q-113 0 -211 42t-172 115.5t-116 172 t-42 209.5zM297 612h694q-12 59 -45 110.5t-79 89.5t-103.5 59.5t-120.5 21.5t-120.5 -21.5t-103.5 -59.5t-78 -89t-44 -111zM348 1253l512 295l78 -166l-553 -206z" />
<glyph unicode="&#xea;" horiz-adv-x="1282" d="M102 539q0 113 42 211t116 171.5t172 115.5t211 42q111 0 209 -42t172 -115.5t116 -172t42 -210.5q0 -53 -11 -111h-192h-86h-586q35 -106 127 -175t209 -69q88 0 163 39t122 105l184 -56q-70 -123 -193.5 -197.5t-275.5 -74.5q-113 0 -211 42t-172 115.5t-116 172 t-42 209.5zM297 612h694q-12 59 -45 110.5t-79 89.5t-103.5 59.5t-120.5 21.5t-120.5 -21.5t-103.5 -59.5t-78 -89t-44 -111zM397 1247l252 250l252 -250h-143l-109 107l-108 -107h-144z" />
<glyph unicode="&#xeb;" horiz-adv-x="1282" d="M102 539q0 -111 42 -209.5t116 -172t172 -115.5t211 -42q152 0 275.5 75t193.5 197l-184 56q-47 -66 -122 -105t-163 -39q-117 0 -209 69t-127 175h586h86h192q10 57 11 111q0 113 -42 211t-116 171.5t-172 115.5t-209 42q-113 0 -211 -42t-172 -115.5t-116 -172 t-42 -210.5zM297 612q12 59 44 110.5t78 89.5t103.5 59.5t120.5 21.5t120.5 -21.5t103.5 -59.5t79 -89t45 -111h-694zM330 1249q0 37 26.5 63.5t63.5 26.5q39 0 64.5 -26.5t25.5 -63.5q0 -39 -25.5 -65.5t-64.5 -26.5q-37 0 -63.5 26.5t-26.5 65.5zM760 1249q0 37 25.5 63.5 t64.5 26.5q37 0 63.5 -26.5t26.5 -63.5q0 -39 -26.5 -65.5t-63.5 -26.5q-39 0 -64.5 26.5t-25.5 65.5z" />
<glyph unicode="&#xec;" horiz-adv-x="792" d="M100 1382l78 166l512 -295l-37 -77zM303 0v1079h184v-1079h-184z" />
<glyph unicode="&#xed;" horiz-adv-x="792" d="M100 1253l512 295l78 -166l-553 -206zM303 0v1079h184v-1079h-184z" />
<glyph unicode="&#xee;" horiz-adv-x="702" d="M98 1247l252 250l252 -250h-143l-109 107l-108 -107h-144zM258 0v1079h184v-1079h-184z" />
<glyph unicode="&#xef;" horiz-adv-x="813" d="M102 1249q0 37 27 63.5t64 26.5q39 0 64.5 -26.5t25.5 -63.5q0 -39 -26 -65.5t-64 -26.5q-37 0 -64 26.5t-27 65.5zM315 0v1079h185v-1079h-185zM532 1249q0 37 26 63.5t65 26.5q37 0 63.5 -26.5t26.5 -63.5q0 -39 -27 -65.5t-63 -26.5q-39 0 -65 26.5t-26 65.5z" />
<glyph unicode="&#xf0;" horiz-adv-x="1282" d="M102 539q0 113 42 211t116 171.5t172 115.5t211 42q111 0 209 -42t172 -115.5t116 -172t42 -210.5q0 -111 -42 -209.5t-116 -172t-172 -115.5t-209 -42q-113 0 -211 42t-172 115.5t-116 172t-42 209.5zM289 539q0 -74 27.5 -138.5t75.5 -112.5t112.5 -76t138.5 -28 t138.5 28t112.5 76t75.5 112.5t27.5 138.5t-27.5 138t-75.5 112.5t-112.5 76t-138.5 27.5t-138.5 -27.5t-112.5 -76t-75.5 -113t-27.5 -137.5zM508 1458h67l68 -88l68 88h67l-100 -131l96 -127h-67l-64 82l-61 -82h-70l98 127z" />
<glyph unicode="&#xf1;" horiz-adv-x="1064" d="M82 0v598q0 86 31.5 171t90 154.5t140.5 112.5t180 43t179 -43t138.5 -113.5t89.5 -158.5t32 -176v-588h-185v588q0 55 -18.5 109.5t-52 98.5t-80.5 71.5t-103 27.5q-55 0 -102 -26.5t-82 -69.5t-54.5 -96.5t-19.5 -104.5v-598h-184zM143 1221v2q0 2 4 6q6 8 19 24 q12 14 30.5 34t45.5 40q14 10 29.5 19.5t33.5 19.5q16 8 38 14t44 11h12l2 2h2h3h2l4 -2h10h6h6q16 -2 28.5 -6.5t24.5 -10.5q25 -12 43.5 -29.5t32.5 -31.5q29 -31 51 -43q10 -4 27 -8l8 -2h4h-2h2h2h21q31 4 63 12q16 4 30.5 9t31.5 11q14 6 26.5 12.5t24.5 10.5 q10 6 20.5 11t18.5 9l15 7.5t12 7.5q6 2 8 4q-2 0 -2 -2q-2 -2 -2 -3t-2 -3q-4 -4 -7.5 -10.5t-11.5 -14.5q-6 -6 -13 -14.5t-18 -18.5q-10 -10 -21 -19t-24 -20q-31 -20 -63 -37q-37 -20 -82 -28q-14 0 -21 -2h-2h-4h-2h-6h-12q-29 4 -51 12l-25 12q-6 4 -12 7.5t-10 7.5 q-10 10 -18.5 17t-14.5 15l-28.5 28.5t-24.5 18.5q-8 6 -25 11q0 2 -2 2h-4l-10 2h-7h-2h4h-2h-2h-8q-29 0 -63 -10q-16 -4 -31.5 -9.5t-30.5 -11.5q-14 -6 -26.5 -12t-24.5 -10q-10 -6 -20.5 -11.5t-18.5 -9.5l-14 -7t-10 -7q-7 -4 -9 -6z" />
<glyph unicode="&#xf2;" horiz-adv-x="1280" d="M98 539q0 -111 42 -209.5t116 -172t172 -115.5t211 -42q111 0 209 42t172 115.5t116 172t42 209.5q0 113 -42 211t-116 171.5t-172 115.5t-209 42q-113 0 -211 -42t-172 -115.5t-116 -172t-42 -210.5zM285 539q0 74 27.5 138t75.5 112.5t112.5 76t138.5 27.5t138.5 -27.5 t112.5 -76t75.5 -112.5t27.5 -138t-27.5 -138.5t-75.5 -112.5t-112.5 -76t-138.5 -28t-138.5 28t-112.5 76t-75.5 112.5t-27.5 138.5zM344 1382l78 166l512 -295l-37 -77z" />
<glyph unicode="&#xf3;" horiz-adv-x="1282" d="M102 539q0 113 42 211t116 171.5t172 115.5t211 42q111 0 209 -42t172 -115.5t116 -172t42 -210.5q0 -111 -42 -209.5t-116 -172t-172 -115.5t-209 -42q-113 0 -211 42t-172 115.5t-116 172t-42 209.5zM289 539q0 -74 27.5 -138.5t75.5 -112.5t112.5 -76t138.5 -28 t138.5 28t112.5 76t75.5 112.5t27.5 138.5t-27.5 138t-75.5 112.5t-112.5 76t-138.5 27.5t-138.5 -27.5t-112.5 -76t-75.5 -113t-27.5 -137.5zM348 1253l512 295l78 -166l-553 -206z" />
<glyph unicode="&#xf4;" horiz-adv-x="1286" d="M104 539q0 113 42 211t116 171.5t172 115.5t211 42q111 0 209 -42t172 -115.5t116 -172t42 -210.5q0 -111 -42 -209.5t-116 -172t-172 -115.5t-209 -42q-113 0 -211 42t-172 115.5t-116 172t-42 209.5zM291 539q0 -74 27.5 -138.5t75.5 -112.5t112.5 -76t138.5 -28 t138.5 28t112.5 76t75.5 112.5t27.5 138.5t-27.5 138t-75.5 112.5t-112.5 76t-138.5 27.5t-138.5 -27.5t-112.5 -76t-75.5 -113t-27.5 -137.5zM389 1247l252 250l252 -250h-143l-109 107l-109 -107h-143z" />
<glyph unicode="&#xf5;" horiz-adv-x="1286" d="M104 539q0 -111 42 -209.5t116 -172t172 -115.5t211 -42q111 0 209 42t172 115.5t116 172t42 209.5q0 113 -42 211t-116 171.5t-172 115.5t-209 42q-113 0 -211 -42t-172 -115.5t-116 -172t-42 -210.5zM244 1221v2q0 2 4 6l18 24q12 14 30.5 34t45.5 40q14 10 29.5 19.5 t34.5 19.5q16 8 37.5 14t43.5 11h13l2 2h2h2h2l4 -2h10h6h7q16 -2 28 -6.5t25 -10.5q25 -12 43 -29.5t33 -31.5q29 -31 51 -43q10 -4 26 -8l9 -2h4h-2h2h2h20q31 4 64 12q16 4 30.5 9t30.5 11q14 6 26.5 12.5t24.5 10.5q10 6 20.5 11t18.5 9t15.5 7.5t11.5 7.5q6 2 8 4 q-2 0 -2 -2q-2 -2 -2 -3t-2 -3q-4 -4 -7 -10.5t-12 -14.5q-6 -6 -13 -14.5t-17 -18.5t-21.5 -19t-23.5 -20q-31 -20 -64 -37q-37 -20 -82 -28q-14 0 -20 -2h-2h-4h-2h-7h-12q-29 4 -51 12l-25 12q-6 4 -12 7.5t-10 7.5q-10 10 -18.5 17t-14.5 15l-28.5 28.5t-24.5 18.5 q-8 6 -25 11q0 2 -2 2h-4l-10 2h-6h-2h4h-2h-2h-8q-29 0 -64 -10q-16 -4 -31.5 -9.5t-29.5 -11.5t-26.5 -12t-25.5 -10q-10 -6 -20 -11.5t-19 -9.5l-14 -7t-10 -7q-6 -4 -8 -6zM291 539q0 74 27.5 138t75.5 112.5t112.5 76t138.5 27.5t138.5 -27.5t112.5 -76t75.5 -112.5 t27.5 -138t-27.5 -138.5t-75.5 -112.5t-112.5 -76t-138.5 -28t-138.5 28t-112.5 76t-75.5 112.5t-27.5 138.5z" />
<glyph unicode="&#xf6;" horiz-adv-x="1286" d="M104 539q0 -111 42 -209.5t116 -172t172 -115.5t211 -42q111 0 209 42t172 115.5t116 172t42 209.5q0 113 -42 211t-116 171.5t-172 115.5t-209 42q-113 0 -211 -42t-172 -115.5t-116 -172t-42 -210.5zM291 539q0 74 27.5 138t75.5 112.5t112.5 76t138.5 27.5 t138.5 -27.5t112.5 -76t75.5 -112.5t27.5 -138t-27.5 -138.5t-75.5 -112.5t-112.5 -76t-138.5 -28t-138.5 28t-112.5 76t-75.5 112.5t-27.5 138.5zM317 1249q0 37 27 63.5t64 26.5q39 0 64.5 -26.5t25.5 -63.5q0 -39 -26 -65.5t-64 -26.5q-37 0 -64 26.5t-27 65.5zM748 1249 q0 37 25.5 63.5t64.5 26.5q37 0 63.5 -26.5t26.5 -63.5q0 -39 -27 -65.5t-63 -26.5q-39 0 -64.5 26.5t-25.5 65.5z" />
<glyph unicode="&#xf7;" horiz-adv-x="884" d="M88 369v80h692v-80h-692zM352 92q0 37 25.5 63.5t62.5 26.5t62.5 -26.5t25.5 -63.5t-25.5 -62.5t-62.5 -25.5t-62.5 25.5t-25.5 62.5zM352 721q0 37 25.5 63.5t62.5 26.5t62.5 -26.5t25.5 -63.5t-25.5 -62.5t-62.5 -25.5t-62.5 25.5t-25.5 62.5z" />
<glyph unicode="&#xf8;" horiz-adv-x="1280" d="M100 539q0 113 42 211t116 171.5t172 115.5t211 42q66 0 125 -14t113 -41l36 51h213l-108 -151q76 -74 118 -172.5t42 -212.5q0 -111 -42 -209.5t-116 -172t-172 -115.5t-209 -42q-66 0 -125 14.5t-113 40.5l-36 -53h-213l108 154q-74 74 -118 172t-44 211zM287 539 q0 -66 22.5 -124.5t61.5 -105.5l399 559q-61 25 -129 25q-74 0 -138.5 -27.5t-112.5 -76t-75.5 -112.5t-27.5 -138zM512 209q61 -25 129 -25q74 0 138.5 28t112.5 76t75.5 112.5t27.5 138.5q0 66 -21.5 124t-62.5 105z" />
<glyph unicode="&#xf9;" horiz-adv-x="1085" d="M102 481q0 -86 32 -171t90.5 -154.5t140 -112.5t180.5 -43q98 0 179 43t138.5 113.5t89 157.5t31.5 178v587h-184v-587q0 -55 -18.5 -109.5t-52.5 -98.5t-81 -72t-102 -28t-102.5 27t-82 70t-54 96t-19.5 104v598h-185v-598zM248 1382l78 166l512 -295l-37 -77z" />
<glyph unicode="&#xfa;" horiz-adv-x="1085" d="M102 481v598h185v-598q0 -51 19.5 -104t54 -96t81.5 -70t103 -27q55 0 102 28t81 72t52.5 98t18.5 110v587h184v-587q0 -90 -31.5 -177.5t-89 -158t-138.5 -113.5t-179 -43t-180 43t-140.5 112.5t-90.5 154.5t-32 171zM248 1253l512 295l78 -166l-553 -206z" />
<glyph unicode="&#xfb;" horiz-adv-x="1083" d="M100 481v598h185v-598q0 -51 19.5 -104t54 -96t81.5 -70t103 -27q55 0 102 28t81 72t52.5 98t18.5 110v587h184v-587q0 -90 -31.5 -177.5t-89 -158t-138.5 -113.5t-179 -43t-180 43t-140.5 112.5t-90.5 154.5t-32 171zM289 1247l252 250l252 -250h-144l-108 107 l-109 -107h-143z" />
<glyph unicode="&#xfc;" horiz-adv-x="1085" d="M100 481q0 -86 32 -171t90.5 -154.5t140 -112.5t180.5 -43q98 0 179 43t138.5 113.5t89 157.5t31.5 178v587h-184v-587q0 -55 -18.5 -109.5t-52.5 -98.5t-81 -72t-102 -28t-102.5 27t-82 70t-54 96t-19.5 104v598h-185v-598zM240 1249q0 37 26.5 63.5t63.5 26.5 q39 0 64.5 -26.5t25.5 -63.5q0 -39 -25.5 -65.5t-64.5 -26.5q-37 0 -63.5 26.5t-26.5 65.5zM670 1249q0 37 25.5 63.5t64.5 26.5q37 0 63.5 -26.5t26.5 -63.5q0 -39 -26.5 -65.5t-63.5 -26.5q-39 0 -64.5 26.5t-25.5 65.5z" />
<glyph unicode="&#xfd;" horiz-adv-x="1064" d="M37 -465l47 100l174 375l172 367l-328 702h203l225 -485l228 485h203l-328 -702l-103 -217l-69 -150l-174 -375l-47 -100h-203zM248 1253l512 295l78 -166l-553 -206z" />
<glyph unicode="&#xff;" horiz-adv-x="1064" d="M37 -465h203l47 100l174 375l69 150l103 217l328 702h-203l-228 -485l-225 485h-203l328 -702l-172 -367l-174 -375zM229 1249q0 37 27 63.5t63 26.5q39 0 65 -26.5t26 -63.5q0 -39 -26 -65.5t-65 -26.5q-37 0 -63.5 26.5t-26.5 65.5zM659 1249q0 37 26 63.5t65 26.5 q37 0 63.5 -26.5t26.5 -63.5q0 -39 -27 -65.5t-63 -26.5q-39 0 -65 26.5t-26 65.5z" />
<glyph unicode="&#x153;" horiz-adv-x="1820" d="M68 539q0 113 42 211t115.5 171.5t172 115.5t210.5 42q82 0 156 -23.5t137 -64.5q63 41 137 64.5t156 23.5q113 0 211 -42t172 -115.5t116 -172t42 -210.5q0 -59 -13 -111h-190h-88h-309h-191h-86q8 -25 19.5 -46.5t23.5 -41.5q55 -80 141 -121q70 -35 152 -35 q88 0 163 39t122 105l184 -56q-70 -123 -193.5 -197.5t-275.5 -74.5q-82 0 -155.5 22.5t-137.5 63.5q-63 -41 -137 -63.5t-156 -22.5q-113 0 -211 42t-171.5 115.5t-115.5 172t-42 209.5zM254 539q0 -74 27.5 -138.5t76 -112.5t112.5 -76t138 -28q82 0 152 35 q-49 68 -77 149t-28 171t28 171t77 148q-74 35 -152 35q-74 0 -138 -27.5t-112.5 -76t-76 -113t-27.5 -137.5zM848 612h106h189h399q-12 59 -44 110.5t-78 89.5t-104.5 59.5t-121.5 21.5q-78 0 -152 -35q-90 -45 -141 -123q-39 -57 -53 -123z" />
<glyph unicode="&#x178;" horiz-adv-x="1361" d="M102 1501l433 -749l20 -35v-717h254v717l20 35l433 749h-293l-287 -495l-287 495h-293zM375 1679q0 37 26.5 63.5t63.5 26.5q39 0 64.5 -26.5t25.5 -63.5q0 -39 -25.5 -65.5t-64.5 -26.5q-37 0 -63.5 26.5t-26.5 65.5zM805 1679q0 37 25.5 63.5t64.5 26.5 q37 0 63.5 -26.5t26.5 -63.5q0 -39 -26.5 -65.5t-63.5 -26.5q-39 0 -64.5 26.5t-25.5 65.5z" />
<glyph unicode="&#x2dc;" horiz-adv-x="985" d="M102 1221v2q0 2 4 6q6 8 19 24q12 14 30.5 34t45.5 40q14 10 29.5 19.5t33.5 19.5q16 8 38 14t44 11h12l2 2h2h3h2l4 -2h10h6h6q16 -2 28.5 -6.5t24.5 -10.5q25 -12 43.5 -29.5t32.5 -31.5q29 -31 51 -43q10 -4 27 -8l8 -2h4h-2h2h2h21q31 4 63 12q16 4 30.5 9t31.5 11 q14 6 26.5 12.5t24.5 10.5q10 6 20.5 11t18.5 9l15 7.5t12 7.5q6 2 8 4q-2 0 -2 -2q-2 -2 -2 -3t-2 -3q-4 -4 -7.5 -10.5t-11.5 -14.5q-6 -6 -13 -14.5t-18 -18.5q-10 -10 -21 -19t-24 -20q-31 -20 -63 -37q-37 -20 -82 -28q-14 0 -21 -2h-2h-4h-2h-6h-12q-29 4 -51 12 l-25 12q-6 4 -12 7.5t-10 7.5q-10 10 -18.5 17t-14.5 15l-28.5 28.5t-24.5 18.5q-8 6 -25 11q0 2 -2 2h-4l-10 2h-7h-2h4h-2h-2h-8q-29 0 -63 -10q-16 -4 -31.5 -9.5t-30.5 -11.5q-14 -6 -26.5 -12t-24.5 -10q-10 -6 -20.5 -11.5t-18.5 -9.5l-14 -7t-10 -7q-7 -4 -9 -6z" />
<glyph unicode="&#x2000;" horiz-adv-x="964" />
<glyph unicode="&#x2001;" horiz-adv-x="1929" />
<glyph unicode="&#x2002;" horiz-adv-x="964" />
<glyph unicode="&#x2003;" horiz-adv-x="1929" />
<glyph unicode="&#x2004;" horiz-adv-x="643" />
<glyph unicode="&#x2005;" horiz-adv-x="482" />
<glyph unicode="&#x2006;" horiz-adv-x="321" />
<glyph unicode="&#x2007;" horiz-adv-x="321" />
<glyph unicode="&#x2008;" horiz-adv-x="241" />
<glyph unicode="&#x2009;" horiz-adv-x="385" />
<glyph unicode="&#x200a;" horiz-adv-x="107" />
<glyph unicode="&#x2010;" horiz-adv-x="616" d="M104 500v80h412v-80h-412z" />
<glyph unicode="&#x2011;" horiz-adv-x="616" d="M104 500v80h412v-80h-412z" />
<glyph unicode="&#x2012;" horiz-adv-x="616" d="M104 500v80h412v-80h-412z" />
<glyph unicode="&#x2013;" horiz-adv-x="608" d="M100 500v80h412v-80h-412z" />
<glyph unicode="&#x2014;" horiz-adv-x="897" d="M102 500v80h693v-80h-693z" />
<glyph unicode="&#x2018;" horiz-adv-x="380" d="M102 1278q0 33 19 70q16 31 50 71.5t99 85.5q-20 -23 -32 -45q-10 -20 -17.5 -45.5t-1.5 -52.5q27 -10 43.5 -32.5t16.5 -51.5q0 -37 -26 -63.5t-63 -26.5t-62.5 26.5t-25.5 63.5z" />
<glyph unicode="&#x2019;" horiz-adv-x="382" d="M104 1411q0 37 26 63.5t63 26.5t62.5 -26.5t25.5 -63.5q0 -33 -19 -70q-16 -33 -50 -72.5t-99 -84.5q18 23 30 45q10 20 18.5 44.5t2.5 53.5q-27 10 -43.5 32.5t-16.5 51.5z" />
<glyph unicode="&#x201a;" horiz-adv-x="376" d="M102 227q0 37 26 63.5t62 26.5q37 0 63 -26.5t26 -63.5q0 -33 -19 -69q-16 -33 -50 -73t-99 -85q18 23 30 45q10 20 18.5 45t2.5 53q-27 10 -43.5 33t-16.5 51z" />
<glyph unicode="&#x201c;" horiz-adv-x="587" d="M100 1274q0 33 19 69q16 31 50 72t99 86q-18 -23 -30 -45q-10 -20 -17.5 -46t-1.5 -54q57 -20 57 -82q0 -37 -25.5 -63.5t-62.5 -26.5t-62.5 26.5t-25.5 63.5zM311 1274q0 33 19 69q16 31 50 72t99 86q-18 -23 -30 -45q-10 -20 -17.5 -46t-1.5 -54q57 -20 57 -82 q0 -37 -25.5 -63.5t-62.5 -26.5t-62.5 26.5t-25.5 63.5z" />
<glyph unicode="&#x201d;" horiz-adv-x="587" d="M100 1411q0 37 26 63.5t62 26.5q37 0 62.5 -26.5t25.5 -63.5q0 -33 -18 -70q-16 -33 -50 -72.5t-99 -84.5q18 23 30 45q10 20 18.5 44.5t2.5 53.5q-27 10 -43.5 32.5t-16.5 51.5zM311 1411q0 37 25.5 63.5t62.5 26.5t62.5 -26.5t25.5 -63.5q0 -33 -18 -70 q-16 -33 -50 -72.5t-100 -84.5q18 23 31 45q10 20 18.5 44.5t2.5 53.5q-27 10 -43.5 32.5t-16.5 51.5z" />
<glyph unicode="&#x201e;" horiz-adv-x="593" d="M104 227q0 37 26 63.5t63 26.5t62.5 -26.5t25.5 -63.5q0 -33 -19 -69q-16 -33 -50 -73t-99 -85q18 23 30 45q10 20 18.5 45t2.5 53q-27 10 -43.5 33t-16.5 51zM315 227q0 37 26 63.5t62 26.5q37 0 63 -26.5t26 -63.5q0 -33 -19 -69q-16 -33 -50 -73t-99 -85q18 23 30 45 q10 20 18.5 45t2.5 53q-27 10 -43.5 33t-16.5 51z" />
<glyph unicode="&#x2022;" horiz-adv-x="374" d="M98 539q0 37 26 63.5t62 26.5q37 0 62.5 -26.5t25.5 -63.5t-25.5 -62.5t-62.5 -25.5t-62.5 25.5t-25.5 62.5z" />
<glyph unicode="&#x202f;" horiz-adv-x="385" />
<glyph unicode="&#x2039;" horiz-adv-x="851" d="M102 530l545 549h103l-545 -549l526 -530h-102z" />
<glyph unicode="&#x203a;" horiz-adv-x="843" d="M94 0l545 549l-526 530h102l526 -530l-544 -549h-103z" />
<glyph unicode="&#x205f;" horiz-adv-x="482" />
<glyph unicode="&#x20ac;" horiz-adv-x="1486" d="M104 406v233h101q-2 14 -3 28.5t-1 28.5t1 27.5t3 28.5h-101v235h162q41 90 105.5 165t145.5 128t178.5 83t201.5 30q145 0 271 -55.5t221 -149.5l-168 -170q-63 63 -146.5 99t-177.5 36q-106 0 -196.5 -45t-153.5 -121h526l-45 -235h-584q-2 -14 -3 -27.5t-1 -28.5 q0 -16 1 -29.5t3 -27.5h629l-45 -233h-481q63 -78 153.5 -122t196.5 -44q94 0 177 35.5t147 97.5l168 -168q-94 -96 -220.5 -150.5t-271.5 -54.5q-104 0 -201.5 29.5t-179.5 83t-146.5 128t-105.5 165.5h-160z" />
<glyph unicode="&#x2122;" horiz-adv-x="1003" d="M102 1432v67h398v-67h-398zM268 1104h66v301l-66 12v-313zM504 1098h59l29 215l57 -99l51 -86l37 58l-63 108l-121 201zM713 1266l35 -60l6 8l59 99l27 -215h61l-49 397z" />
<glyph unicode="&#x25fc;" horiz-adv-x="1075" d="M0 0v1075h1075v-1075h-1075z" />
</font>
</defs>
</svg>
